<svg xmlns="http://www.w3.org/2000/svg" viewBox="0 0 1242 377.7" style="enable-background:new 0 0 1242 377.7" xml:space="preserve"><path d="M1236 24.8C1226.1 7.9 1211.2 0 1191.7 0H53.2c-2.2 0-4.3 0-6.4.1C21.1.7.2 21.4.1 47.1 0 141.6 0 236.1.2 330.6c0 14.9 6.4 27.2 18 36.6 9.7 7.9 21 10.5 33.4 10.5 379.6 0 759.3-.1 1138.9-.1h4.8c25.6-.6 46.6-21.5 46.6-47V47.1c.1-7.9-2-15.6-5.9-22.3z" style="fill:#fff"/><path d="M1236 24.8C1226.1 7.9 1211.2 0 1191.7 0H53.2c-2.2 0-4.3 0-6.4.1C21.1.7.2 21.4.1 47.1 0 141.6 0 236.1.2 330.6c0 14.9 6.4 27.2 18 36.6 9.7 7.9 21 10.5 33.4 10.5 379.6 0 759.3-.1 1138.9-.1h4.8c25.6-.6 46.6-21.5 46.6-47V47.1c.1-7.9-2-15.6-5.9-22.3zm-213.7 66.8c4.7-9.2 15.5-13.6 25.3-10.2 8.3 2.9 14 10.7 14.3 19.5 0 2.4-1 2.9-3.1 2.9-5.4-.1-10.7 0-16.1 0-5.1 0-10.2.2-15.3-.1-3.5-.2-3.7 1.3-3 4 3.2 12.8 19.3 17.9 30.1 9.4 1-.8 1.8-2.6 3.5-.5 1.3 1.7 0 2.4-.9 3.3-6.9 6.5-20.5 6.9-28.8.7-8.6-6.3-11.2-19.1-6-29zM970 62.2c2.4.1 1.9 1.8 1.9 3.1v23.8c5.1-6.7 11.1-9 18.2-8.7 9.9.4 16.3 6 16.8 15.8.5 8.7.2 17.4.2 26.1 0 1.7-.5 2.5-2.3 2.4-1.8 0-1.9-1.1-1.9-2.4v-21.7c-.1-11-4.8-16.5-14.2-16.6-10-.1-16.5 6.2-16.8 16.5-.2 7 0 13.9-.1 20.9 0 1.6.4 3.3-2.2 3.2-2.4-.1-1.9-1.8-1.9-3.2V65.1c0-1.3-.4-3.1 2.3-2.9zM857.8 80.7c2.5 0 2.1 1.5 2.1 3s-.1 2.9-.1 4.4c5.8-6.5 12.8-8.4 20.9-7.4 7 .8 12.5 5.4 13.7 12.3 1.7 9.9.5 20 .8 30 0 1.4-.8 1.8-2.1 1.8-1.5 0-2.2-.6-2.2-2.1v-12.9c0-3.9.1-7.8-.1-11.6-.4-8-4-12.5-10.9-13.7-8.5-1.4-15.7 2.2-18.5 9.2-1 2.5-1.4 5.2-1.4 7.8v19.7c0 1.4.8 3.4-1.9 3.5s-2.2-1.7-2.2-3.2V83.7c-.1-1.3-.6-3 1.9-3zm-37.2-.3c12.9 0 22.2 9.5 22 22.5s-9.5 22.2-22.4 22.1c-12.6-.1-21.7-9.6-21.6-22.5.1-12.8 9.3-22.1 22-22.1zm-94.2 6c8.9-8.9 21.9-7.8 33.3 3.2V66c0-1.5-.9-3.7 2.1-3.8s2.2 2.2 2.2 3.7V121c0 1.5.9 3.8-2 3.8s-1.8-2.3-2.1-3.8c-.2-1.5.3-3.2-.6-5.1-4.8 6.6-11.1 9.7-19 9.2-5.6-.2-10.8-2.6-14.6-6.7-7.9-8.6-7.5-23.8.7-32zM603.7 62.2c3 .1 1.9 2.4 2 3.9.1 9.2.1 18.5.1 27.7v27.3c0 1.5.8 3.8-2.2 3.7-2.7-.1-2-2.1-2-3.5V65.9c-.1-1.6-.9-3.9 2.1-3.7zM465.3 80.9c1.1-.2 2.5-.5 3.1 1 .5 1.1.9 2.2 1.3 3.4 4.2 11.1 8.3 22.3 12.5 33.5 1.8-.3 1.6-1.8 2-2.8 4.1-10.6 8.1-21.2 12.2-31.8.6-1.5.7-3.5 3.3-3.4 2.3.1 2.3 1.9 2.9 3.3 4.5 11.6 8.9 23.2 13.3 34.9 1.6-1.1 1.7-2.7 2.2-4 4-10.5 8-21 11.9-31.5.9-2.4 2-3.3 4.8-2.2l-12.9 34.2c-.5 1.5-1.1 3-1.8 4.5-1 1.8-.4 4.9-3.7 5s-3.1-2.9-3.9-4.8c-3.9-9.6-7.5-19.2-11.3-28.8-.5-1.2-.5-2.7-2.1-3.7-3.2 8.2-6.4 16.2-9.5 24.2-1.4 3.5-2.8 7-4.1 10.5-.5 1.5-1.1 2.6-3.1 2.5s-2.2-1.2-2.7-2.5c-4.9-13-9.9-26-14.8-39-.2-.8-1.6-2 .4-2.5zm-112.6 40.4V69.1c0-1.8-.1-3.5 2.6-3.5 8 .2 16.1-.3 24.1.3 17.2 1.3 28.3 13.2 28.1 29.5s-11.8 28.2-29.1 29.2c-7.6.4-15.2 0-22.9.2-2.9.1-2.8-1.5-2.8-3.5zm-190.8-4.7c1-23.5 21.8-46.4 45.3-49.6 5.8-.8 6.3-.3 6.1 7.2-.5 24.6-19.7 47.1-42.8 50.2-8 1.1-9 .3-8.6-7.8zm99 127.4c-6.2 17.6-15.8 33.8-28.3 47.7-12.2 13.8-25.2 16.8-41.9 9.1-14.8-6.8-29-6.7-43.7 0-17.3 7.8-28.8 5.4-41.3-8.9-26.7-30.4-41.2-65.5-37.9-106.4 2-24.9 13.2-44.7 36.5-56.2 7.3-3.5 15.4-5.4 23.6-5.3 7.6-.1 15.1 1.7 21.8 5.3 11 5.5 21.2 5.2 32.2 0 17-8 34.4-8.3 51.7-.3 7.7 3.5 14.4 8.9 19.6 15.6 3.3 4.2 3.3 4.3-1 7.4-20.5 14.7-27.5 39.8-17.4 62 4.8 10.5 13.1 18.9 23.6 23.8 3.2 1.4 3.6 3 2.5 6.2zm179 34.6h-5.3c-7.7 2.2-11.2-1.8-13.2-8.6-1.3-4.2-3.5-8.1-5.1-12.2-.5-1.7-2.1-2.8-3.9-2.6-15 .1-30 .1-45 0-2.2 0-3 .9-3.8 2.7-2.4 6-5.1 11.8-7.5 17.8-.9 2.2-2 3.1-4.5 3-4.3-.2-8.6-.2-12.9 0-3.9.2-2.6-1.6-1.8-3.6 6.9-15.4 13.9-30.8 20.8-46.1 7.2-15.9 14.3-31.7 21.4-47.7 1.1-2.5 2.4-3.8 5.3-3.6 4.8.3 10.4-1.3 14.2.8 3.8 2 4.5 8.1 6.5 12.5 12.6 27.7 25.1 55.4 37.5 83.1 2.3 4.5 2.3 4.5-2.7 4.5zm-2-153.6c-12.6-.1-21.8-9.6-21.7-22.4 0-12.8 9.4-22.2 22-22.2 12.9 0 22.1 9.4 22 22.4 0 13.1-9.4 22.4-22.3 22.2zm89.6 142.8c-7.1 7.5-16 11-26.1 11.6s-19.3-1.9-27.4-10.1v29.1c0 8.1 0 8.1-8.2 8.1-9.7 0-9.7 0-9.7-9.5 0-30.4 0-60.8-.1-91.2 0-3.2.7-4.6 4.2-4.3 3.2.2 6.4.2 9.6 0 2.6-.1 3.7.8 3.4 3.4-.2 1.7 0 3.5 0 6.2 8.9-8.6 19-11.4 30.5-10.1 11.5 1.3 20.7 6.2 27.3 15.7 10.3 15.1 8.7 38.1-3.5 51.1zm21.7-168.9c-.5 7.5-.2 15-.3 22.5 0 1.5.6 3.4-2.1 3.4s-2.1-1.9-2.1-3.4V84.1c0-1.5-.6-3.4 2.1-3.4s1.8 2.1 2 3.5 0 2.8 0 5.4c5.2-7.1 11.5-9.6 19-9.1 9.4.6 15.7 6.3 16.1 15.7.4 8.7.2 17.4.2 26.1 0 1.5-.2 2.6-2.1 2.6s-2.1-1.2-2.1-2.6v-22.1c-.1-10.2-4.6-15.5-13.5-15.9-9.6-.6-16.5 5.1-17.2 14.6zM627.8 266c-6.8 8.4-15.8 12.5-26.5 13.3s-20.2-1.4-28.5-10V300c0 6.5 0 6.5-6.3 6.5-2.4-.1-4.8-.1-7.2 0-3.5.4-4.6-.7-4.5-4.4.2-11.8.1-23.6.1-35.4 0-20.4.1-40.7-.1-61.1 0-3.3.8-4.6 4.2-4.3 3.2.2 6.4.2 9.6 0 2.7-.2 3.7.8 3.4 3.5-.1 1.9-.1 3.9 0 5.8 19.4-13.6 40.8-12.8 54.3 1.6 13 14.1 13.8 38.8 1.5 53.8zm13-141c-12.7.1-22-9.2-22.2-22-.1-13 9.1-22.6 21.9-22.6s22.2 9.4 22.2 22.4c0 12.8-9.2 22.2-21.9 22.2zm30.9-13.3c.3-5.8 4.1-9.8 10.4-11 5.7-1.1 11.5-.6 17.2-.5 2.8 0 4-.5 3.9-3.7-.3-7.7-4.2-11.9-11.9-12.4-5.1-.3-10.2 1.1-14.5 4-1 .7-1.8 1.7-3 .1s-.3-2.4.9-3.2c7.4-4.8 15.4-6.1 23.8-3.2 5.8 2 8.5 6.8 8.6 12.8.2 9.1.1 18.2.1 27.3 0 1.3.3 2.7-1.9 2.8s-2.2-1.4-2.2-2.9v-4.1c-6.7 7.6-14.2 8.5-22.3 6.4-6.1-1.6-9.4-6.3-9.1-12.4zm79.7 163c-14.6 7.2-29.9 6.4-45.2 2.6-6-1.4-11.8-3.9-16.9-7.3-1.9-1.3-2.8-2.5-1.5-4.9 1.5-2.8 2.9-5.8 4-8.8.9-2.2 1.5-2.8 3.9-1.3 10.8 7.2 23.8 10.4 36.7 9 4.3-.4 8.5-1.4 12-4.2 6-4.8 5.8-12.6-.4-17-4.1-3-9-4-13.8-5.3-7.6-2.1-15.4-3.6-22.8-6.4-10.6-4-18-10.7-18.5-22.8-.6-11.9 4.5-20.7 14.9-26.5 7.9-4.5 16.6-5.7 25.6-5.7 10.7.1 21 2 30.6 7 2.3 1.2 3.1 2.4 1.8 5-1.4 2.8-2.5 5.6-3.5 8.5-.8 2.4-1.7 2.6-4 1.5-10.4-5.4-21.3-7.8-33-5.8-4 .7-7.8 2-10.7 5-4.8 5.1-4.1 12.3 1.6 16.4 3.2 2.3 7 3.3 10.7 4.4 8.5 2.4 17.2 4 25.5 7.1 10.7 4.1 18.3 10.8 18.7 23.1.6 12.2-5 21.2-15.7 26.4zm73.2 2.8c-7.6 2.8-16 2.8-23.6 0-9.2-3.3-13.7-10.5-14.3-20-.4-6.4-.1-12.9-.1-19.3h-.1c0-6.2-.1-12.3 0-18.5.1-2.4-.7-3.3-3.2-3.3-3 0-7 1.4-8.9-.6s-.3-6.2-.7-9.3c-.6-3.9 1.2-4.6 4.7-4.6 8.1.2 8.1.1 8.1-7.8 0-9.7 0-9.7 9.9-9.7 8.1 0 8.1 0 8.1 7.9 0 9.7 0 9.7 9.9 9.7 11.2 0 11.1 0 10.9 11.2 0 2.8-1.1 3.3-3.6 3.3-4.7-.2-9.4 0-14.1-.1-2.1 0-3.2.4-3.1 2.8.1 11.5-.1 23 .1 34.6.2 9.3 8.1 13.5 17.4 9.3 3.3-1.5 4.1-.5 4.9 2.2.4 1.3 1 2.5 1.4 3.8 2.2 5.9 2.1 6.4-3.7 8.4zm86.6-14.3c-7.3 10.4-19.7 16.3-37.7 16.2-12.6-.4-25.8-6.2-33-21.2-6.9-14.2-6.1-28.5 3.1-41.5 12.5-17.7 40.8-21.5 59.2-8.2 16.7 12.1 20.6 37.3 8.4 54.7zm23.6-162.8c.1-4.3 0-8.6.1-12.9.1-2.5-.8-3.4-3.2-3.2-1.1.1-2.1.1-3.2 0-.9.1-1.6-.6-1.7-1.4v-.3c0-1.1.4-2.1 1.5-1.8 6.6 1.3 7.2-2.4 6.5-7.4-.2-1.4.4-2.2 2-2.3 1.8-.1 2.2.8 2.3 2.4.7 7.2.7 7.2 7.9 7.2h4c1.3 0 2 .3 2 1.8s-.7 1.9-2 1.9c-3.1 0-6.2.2-9.2 0-2.5-.1-2.8 1.2-2.8 3.2.1 8.3-.1 16.6.1 24.9.1 7.7 5.3 10.9 12.6 8 1.4-.5 2.7-1.7 3.5.5.8 1.9-1 2.2-2.1 2.8-9.2 4.6-18.1-.7-18.3-10.9-.1-4.2 0-8.4 0-12.5zm44.8 115.8c-1.6 3.4-5.9.9-9 1.6-9.5 2.1-15.6 8.1-16.7 18.1-1.2 11.7-.3 23.5-.5 35.3-.1 7.4 0 7.5-7.4 7.4-3.4-.1-7.8 1.5-10-.8-2-2.1-.6-6.4-.6-9.7 0-20.9 0-41.8-.1-62.6 0-2.9.7-4.1 3.8-3.9 3.5.2 7 .2 10.4 0 2.3-.1 3.1.8 3 3s-.1 4.5-.1 6.7c6.8-7.2 14.9-9.7 23.8-10.4 2.5-.2 3.9.2 3.6 3.1-.1.8-.1 1.6 0 2.4.2 3.2 1.2 7-.2 9.8zm87.1 27c-.3 2.6-1.6 2.6-3.5 2.6H1010.3c-4.2 0-4.4.3-2.8 4.3 3.3 8.1 9.7 12.4 18 13.7 8.9 1.4 17.4.1 24.5-6.1 1.6-1.4 2.5-1.5 3.8.2 1.5 2.1 3.1 4 5 5.7 3.2 2.8 2.2 4.6-.6 6.9-11 8.9-23.6 10.4-36.9 8.1-33.4-5.6-38.9-38.5-28.6-58 8.6-16.3 28.9-24 47.9-18.1 17.2 5.4 28.1 22.5 26.1 40.7z"/><path d="M496.5 216c-13.4 0-22.8 10-22.8 24.2s9.6 24 23 23.9c13.5-.1 22.8-10 22.6-24.3-.1-14-9.5-23.8-22.8-23.8zM595.4 216c-13.4 0-22.9 10-22.8 24.2 0 14.2 9.4 24 23 23.9 13.3-.1 22.5-9.7 22.6-23.9s-9.4-24.2-22.8-24.2zM394.5 206.9c-1.4-3.2-2.7-6.3-4.5-10.5-6.3 14.5-12 28.1-17.8 41.6-.9 2.1-.2 2.6 1.8 2.6 10.7-.1 21.4-.1 32.1 0 3 0 2.5-1.3 1.7-3.1-4.5-10.2-8.9-20.4-13.3-30.6zM1028.2 215.1c-10.1-.1-18.4 6-21.3 15.2-1 3.1 0 3.7 2.9 3.6 6-.1 12-.1 18-.1 6.1 0 12.3-.1 18.5.1 3.1.1 3.6-.8 2.8-3.7-2.8-9-10.8-15-20.9-15.1zM877 216c-13.4.1-22.8 10.1-22.7 24.4.1 14.1 9.4 23.8 22.8 23.8 13.6 0 22.9-9.9 22.9-24.1 0-14.2-9.6-24.2-23-24.1zM357.1 117.7c0 1.7-.1 3.2 2.4 3.2 6.7-.2 13.4.3 20.1-.3 14.5-1.4 23.5-11.2 23.5-25.2.1-14.1-8.6-23.9-23.2-25.5-6.8-.7-13.7-.2-20.5-.4-2.5-.1-2.4 1.5-2.4 3.2v22.5c.1 7.5.1 15 .1 22.5zM741.9 121.2c10.4.1 17.8-7.7 17.8-18.5 0-10.7-7.3-18.4-17.5-18.5s-17.9 8-17.8 18.6c-.1 10.6 7.3 18.3 17.5 18.4zM1026.8 100.5h14.1c4.6 0 9.3-.1 14 0 2.4.1 2.9-.9 2.4-3.2-1.4-6.6-6.7-11.8-13.3-13-9.1-1.7-17.9 4.3-19.7 13.4-.5 2.3.5 2.8 2.5 2.8zM702.4 113.3c1.3-2.8 1.4-6.1.3-9-.8-1.9-3.9-.6-5.9-.8-1.1-.1-2.1-.1-3.2 0-3.7 0-7.6-.2-11.2.7s-5.9 3.2-6.4 6.9c-.6 3.3.8 6.6 3.6 8.4 7 4.9 19.2 1.6 22.8-6.2zM640.7 84.2c-10.3 0-17.8 8.1-17.7 18.7s7.5 18.3 17.7 18.3c10.4 0 17.8-7.8 17.7-18.7-.2-10.6-7.6-18.4-17.7-18.3zM820.6 121.2c10.3 0 17.6-7.6 17.6-18.3.1-10.8-7.4-18.7-17.7-18.7-10.1 0-17.6 7.8-17.7 18.4 0 10.7 7.6 18.6 17.8 18.6zM438.2 84.2c-10.1 0-17.5 7.8-17.6 18.4 0 10.9 7.3 18.6 17.7 18.6 10.2 0 17.6-7.8 17.6-18.3.1-10.8-7.6-18.8-17.7-18.7z"/></svg>