<svg xmlns="http://www.w3.org/2000/svg" xml:space="preserve" id="Calque_1" x="0" y="0" style="enable-background:new 0 0 32 32" version="1.1" viewBox="0 0 32 32"><style>.st0{fill:#df0}</style><path d="M9.8 22.2c-4-4-4-10.6 0-14.6L17.3.1C12.8-.3 8.2 1.2 4.7 4.7c-6.3 6.3-6.3 16.4 0 22.6s16.4 6.3 22.6 0c3.5-3.5 5-8.1 4.6-12.7l-7.5 7.5c-4 4.1-10.6 4.1-14.6.1z" class="st0"/><path d="m17.9.4-7.3 7.3c-3.9 3.9-4 10.2-.2 13.9s10 3.7 13.9-.2l7.3-7.3c-.2-3.5-1.6-6.8-4.3-9.4s-6-4-9.4-4.3z" class="st0"/></svg>