<svg xmlns="http://www.w3.org/2000/svg" xml:space="preserve" id="Calque_1" x="0" y="0" style="enable-background:new 0 0 30 30" version="1.1" viewBox="0 0 30 30"><style>.st0{fill:#ebeff2}</style><path d="M9.5 28.9c-2.8-1.2-5.2-3.3-6.6-6s-2-5.8-1.4-8.8 2.1-5.8 4.4-7.8c2.3-2 5.2-3.2 8.3-3.3 0-.1-.1-.2-.1-.3V2h-1.3c-.3 0-.7-.2-.9-.5-.2-.3-.2-.7 0-1 .2-.3.5-.5.8-.5h4.6c.3 0 .7.2.9.5.2.3.2.7 0 1s-.5.5-.8.5H16v1c3.4.3 6.6 1.9 8.9 4.5s3.5 5.9 3.4 9.4c-.1 3.4-1.5 6.7-4 9.1-1.9 1.9-4.3 3.2-7 3.7-2.6.6-5.3.3-7.8-.8zM3.2 16.5c0 2.3.7 4.5 1.9 6.4 1.3 1.9 3.1 3.4 5.2 4.2 2.1.9 4.4 1.1 6.7.7 2.2-.4 4.3-1.5 5.9-3.2 1.6-1.6 2.7-3.7 3.2-5.9.4-2.2.2-4.6-.7-6.7-.9-2.1-2.4-3.9-4.2-5.2S17 4.9 14.7 4.9c-3.1 0-6 1.2-8.2 3.4-2.1 2.2-3.3 5.1-3.3 8.2zm23.9-7.8-3.3-3.3c-.2-.2-.3-.4-.3-.7s.1-.5.3-.7c.2-.2.4-.3.7-.3.3 0 .5.1.7.3l3.3 3.3c.3.3.3.6.3 1-.1.3-.4.6-.7.7-.4 0-.7-.1-1-.3z" class="st0"/><path d="M14.8 6.6c2.6 0 5.1 1 7 2.9 1.8 1.8 2.9 4.4 2.9 7h-9.9V6.6z" class="st0"/></svg>