<svg xmlns="http://www.w3.org/2000/svg" xml:space="preserve" id="Calque_1" x="0" y="0" style="enable-background:new 0 0 30 30" version="1.1" viewBox="0 0 30 30"><style>.st0{fill:#ebeff2}</style><path d="M18.4 15c0-1.8-1.5-3.3-3.3-3.3s-3.3 1.5-3.3 3.3 1.5 3.3 3.3 3.3 3.3-1.5 3.3-3.3zM15 17.1c-1.2 0-2.1-1-2.1-2.1s1-2.1 2.1-2.1 2.1 1 2.1 2.1-.9 2.1-2.1 2.1z" class="st0"/><path d="M29.4 14.4h-1.9C27.2 8 22 2.8 15.6 2.5V.6c0-.3-.3-.6-.6-.6s-.6.3-.6.6v1.9C8 2.8 2.8 8 2.5 14.4H.6c-.3 0-.6.3-.6.6s.3.6.6.6h1.9C2.8 22 8 27.2 14.4 27.5v1.9c0 .3.3.6.6.6s.6-.3.6-.6v-1.9c6.4-.3 11.6-5.5 11.9-11.9h1.9c.3 0 .6-.3.6-.6s-.3-.6-.6-.6zm-15-10.7v1.8c-4.8.3-8.7 4.1-9 9H3.7C4 8.6 8.7 4 14.4 3.7zm0 22.6C8.7 26 4 21.4 3.7 15.6h1.8c.3 4.8 4.2 8.7 9 9l-.1 1.7zm.6-5.8c-.3 0-.6.3-.6.6v2.3c-4.2-.3-7.5-3.6-7.8-7.8h2.3c.3 0 .6-.3.6-.6s-.3-.6-.6-.6H6.6c.3-4.2 3.6-7.5 7.8-7.8v2.3c0 .3.3.6.6.6s.6-.3.6-.6V6.6c4.2.3 7.5 3.6 7.8 7.8h-2.3c-.3 0-.6.3-.6.6s.3.6.6.6h2.3c-.3 4.2-3.6 7.5-7.8 7.8v-2.3c0-.3-.2-.6-.6-.6zm.6 5.8v-1.8c4.8-.3 8.7-4.2 9-9h1.8c-.4 5.9-5 10.5-10.8 10.8zm9-11.9c-.3-4.8-4.2-8.7-9-9V3.7C21.4 4 26 8.6 26.3 14.4h-1.7z" class="st0"/></svg>