<?xml version="1.0" encoding="utf-8"?>
<!-- Generator: Adobe Illustrator 26.5.3, SVG Export Plug-In . SVG Version: 6.00 Build 0)  -->
<svg version="1.1" id="Calque_1" xmlns="http://www.w3.org/2000/svg" xmlns:xlink="http://www.w3.org/1999/xlink" x="0px" y="0px"
	 viewBox="0 0 30 30" style="enable-background:new 0 0 30 30;" xml:space="preserve">
<style type="text/css">
	.st0{fill:#EBEFF2;}
</style>
<path class="st0" d="M27.7,1.1l1.1,1.1c1.5,1.5,1.5,4,0,5.5L7.8,28.8c-1.5,1.5-4,1.5-5.5,0l-1.1-1.1c-1.5-1.5-1.5-4,0-5.5L22.2,1.1
	C23.7-0.4,26.2-0.4,27.7,1.1z"/>
<path class="st0" d="M1.1,2.3l1.1-1.1c1.5-1.5,4-1.5,5.5,0l21.1,21.1c1.5,1.5,1.5,4,0,5.5l-1.1,1.1c-1.5,1.5-4,1.5-5.5,0L1.1,7.8
	C-0.4,6.3-0.4,3.8,1.1,2.3z"/>
</svg>
