<svg xmlns="http://www.w3.org/2000/svg" xml:space="preserve" id="Calque_1" x="0" y="0" style="enable-background:new 0 0 250 250" version="1.1" viewBox="0 0 250 250"><style>.st0{fill-rule:evenodd;clip-rule:evenodd}</style><path d="M54.3 109.8c0-3.2-1.3-6.2-3.5-8.5-2.2-2.2-5.3-3.5-8.5-3.5h-8.7c-3.2 0-6.2 1.3-8.5 3.5-2.2 2.2-3.5 5.3-3.5 8.5v8.7c0 3.2 1.3 6.2 3.5 8.5 2.2 2.2 5.3 3.5 8.5 3.5h8.7c3.2 0 6.2-1.3 8.5-3.5 2.2-2.2 3.5-5.3 3.5-8.5v-8.7zm-10.8 0v8.7c0 .3-.1.6-.3.8-.2.2-.5.3-.8.3h-8.7c-.3 0-.6-.1-.8-.3-.2-.2-.3-.5-.3-.8v-8.7c0-.3.1-.6.3-.8.2-.2.5-.3.8-.3h8.7c.3 0 .6.1.8.3.2.2.3.5.3.8zM54.3 153.3c0-3.2-1.3-6.2-3.5-8.5-2.2-2.2-5.3-3.5-8.5-3.5h-8.7c-3.2 0-6.2 1.3-8.5 3.5-2.2 2.2-3.5 5.3-3.5 8.5v8.7c0 3.2 1.3 6.2 3.5 8.5 2.2 2.2 5.3 3.5 8.5 3.5h8.7c3.2 0 6.2-1.3 8.5-3.5 2.2-2.2 3.5-5.3 3.5-8.5v-8.7zm-10.8 0v8.7c0 .3-.1.6-.3.8-.2.2-.5.3-.8.3h-8.7c-.3 0-.6-.1-.8-.3-.2-.2-.3-.5-.3-.8v-8.7c0-.3.1-.6.3-.8.2-.2.5-.3.8-.3h8.7c.3 0 .6.1.8.3.2.2.3.5.3.8zM54.3 196.7c0-3.2-1.3-6.2-3.5-8.5-2.2-2.2-5.3-3.5-8.5-3.5h-8.7c-3.2 0-6.2 1.3-8.5 3.5-2.2 2.2-3.5 5.3-3.5 8.5v8.7c0 3.2 1.3 6.2 3.5 8.5 2.2 2.2 5.3 3.5 8.5 3.5h8.7c3.2 0 6.2-1.3 8.5-3.5 2.2-2.2 3.5-5.3 3.5-8.5v-8.7zm-10.8 0v8.7c0 .3-.1.6-.3.8-.2.2-.5.3-.8.3h-8.7c-.3 0-.6-.1-.8-.3-.2-.2-.3-.5-.3-.8v-8.7c0-.3.1-.6.3-.8.2-.2.5-.3.8-.3h8.7c.3 0 .6.1.8.3.2.3.3.6.3.8zM97.8 109.8c0-3.2-1.3-6.2-3.5-8.5-2.2-2.2-5.3-3.5-8.5-3.5h-8.7c-3.2 0-6.2 1.3-8.5 3.5-2.2 2.2-3.5 5.3-3.5 8.5v8.7c0 3.2 1.3 6.2 3.5 8.5 2.2 2.2 5.3 3.5 8.5 3.5h8.7c3.2 0 6.2-1.3 8.5-3.5 2.2-2.2 3.5-5.3 3.5-8.5v-8.7zm-10.8 0v8.7c0 .3-.1.6-.3.8-.2.2-.5.3-.8.3h-8.7c-.3 0-.6-.1-.8-.3-.2-.2-.3-.5-.3-.8v-8.7c0-.3.1-.6.3-.8.2-.2.5-.3.8-.3h8.7c.3 0 .6.1.8.3.1.2.3.5.3.8zM97.8 153.3c0-3.2-1.3-6.2-3.5-8.5-2.2-2.2-5.3-3.5-8.5-3.5h-8.7c-3.2 0-6.2 1.3-8.5 3.5-2.2 2.2-3.5 5.3-3.5 8.5v8.7c0 3.2 1.3 6.2 3.5 8.5 2.2 2.2 5.3 3.5 8.5 3.5h8.7c3.2 0 6.2-1.3 8.5-3.5 2.2-2.2 3.5-5.3 3.5-8.5v-8.7zm-10.8 0v8.7c0 .3-.1.6-.3.8-.2.2-.5.3-.8.3h-8.7c-.3 0-.6-.1-.8-.3-.2-.2-.3-.5-.3-.8v-8.7c0-.3.1-.6.3-.8.2-.2.5-.3.8-.3h8.7c.3 0 .6.1.8.3.1.2.3.5.3.8zM97.8 196.7c0-3.2-1.3-6.2-3.5-8.5-2.2-2.2-5.3-3.5-8.5-3.5h-8.7c-3.2 0-6.2 1.3-8.5 3.5-2.2 2.2-3.5 5.3-3.5 8.5v8.7c0 3.2 1.3 6.2 3.5 8.5 2.2 2.2 5.3 3.5 8.5 3.5h8.7c3.2 0 6.2-1.3 8.5-3.5 2.2-2.2 3.5-5.3 3.5-8.5v-8.7zm-10.8 0v8.7c0 .3-.1.6-.3.8-.2.2-.5.3-.8.3h-8.7c-.3 0-.6-.1-.8-.3-.2-.2-.3-.5-.3-.8v-8.7c0-.3.1-.6.3-.8.2-.2.5-.3.8-.3h8.7c.3 0 .6.1.8.3.1.3.3.6.3.8zM141.3 109.8c0-3.2-1.3-6.2-3.5-8.5-2.2-2.2-5.3-3.5-8.5-3.5h-8.7c-3.2 0-6.2 1.3-8.5 3.5-2.2 2.2-3.5 5.3-3.5 8.5v8.7c0 3.2 1.3 6.2 3.5 8.5 2.2 2.2 5.3 3.5 8.5 3.5h8.7c3.2 0 6.2-1.3 8.5-3.5 2.2-2.2 3.5-5.3 3.5-8.5v-8.7zm-10.9 0v8.7c0 .3-.1.6-.3.8-.2.2-.5.3-.8.3h-8.7c-.3 0-.6-.1-.8-.3-.2-.2-.3-.5-.3-.8v-8.7c0-.3.1-.6.3-.8.2-.2.5-.3.8-.3h8.7c.3 0 .6.1.8.3.2.2.3.5.3.8zM141.3 153.3c0-3.2-1.3-6.2-3.5-8.5-2.2-2.2-5.3-3.5-8.5-3.5h-8.7c-3.2 0-6.2 1.3-8.5 3.5-2.2 2.2-3.5 5.3-3.5 8.5v8.7c0 3.2 1.3 6.2 3.5 8.5 2.2 2.2 5.3 3.5 8.5 3.5h8.7c3.2 0 6.2-1.3 8.5-3.5 2.2-2.2 3.5-5.3 3.5-8.5v-8.7zm-10.9 0v8.7c0 .3-.1.6-.3.8-.2.2-.5.3-.8.3h-8.7c-.3 0-.6-.1-.8-.3-.2-.2-.3-.5-.3-.8v-8.7c0-.3.1-.6.3-.8.2-.2.5-.3.8-.3h8.7c.3 0 .6.1.8.3.2.2.3.5.3.8zM141.3 196.7c0-3.2-1.3-6.2-3.5-8.5-2.2-2.2-5.3-3.5-8.5-3.5h-8.7c-3.2 0-6.2 1.3-8.5 3.5-2.2 2.2-3.5 5.3-3.5 8.5v8.7c0 3.2 1.3 6.2 3.5 8.5 2.2 2.2 5.3 3.5 8.5 3.5h8.7c3.2 0 6.2-1.3 8.5-3.5 2.2-2.2 3.5-5.3 3.5-8.5v-8.7zm-10.9 0v8.7c0 .3-.1.6-.3.8-.2.2-.5.3-.8.3h-8.7c-.3 0-.6-.1-.8-.3-.2-.2-.3-.5-.3-.8v-8.7c0-.3.1-.6.3-.8.2-.2.5-.3.8-.3h8.7c.3 0 .6.1.8.3.2.3.3.6.3.8zM184.8 109.8c0-3.2-1.3-6.2-3.5-8.5-2.2-2.2-5.3-3.5-8.5-3.5h-8.7c-3.2 0-6.2 1.3-8.5 3.5-2.2 2.2-3.5 5.3-3.5 8.5v8.7c0 3.2 1.3 6.2 3.5 8.5 2.2 2.2 5.3 3.5 8.5 3.5h8.7c3.2 0 6.2-1.3 8.5-3.5 2.2-2.2 3.5-5.3 3.5-8.5v-8.7zm-10.9 0v8.7c0 .3-.1.6-.3.8-.2.2-.5.3-.8.3h-8.7c-.3 0-.6-.1-.8-.3-.2-.2-.3-.5-.3-.8v-8.7c0-.3.1-.6.3-.8.2-.2.5-.3.8-.3h8.7c.3 0 .6.1.8.3.2.2.3.5.3.8zM184.8 153.3c0-3.2-1.3-6.2-3.5-8.5-2.2-2.2-5.3-3.5-8.5-3.5h-8.7c-3.2 0-6.2 1.3-8.5 3.5-2.2 2.2-3.5 5.3-3.5 8.5v8.7c0 3.2 1.3 6.2 3.5 8.5 2.2 2.2 5.3 3.5 8.5 3.5h8.7c3.2 0 6.2-1.3 8.5-3.5 2.2-2.2 3.5-5.3 3.5-8.5v-8.7zm-10.9 0v8.7c0 .3-.1.6-.3.8-.2.2-.5.3-.8.3h-8.7c-.3 0-.6-.1-.8-.3-.2-.2-.3-.5-.3-.8v-8.7c0-.3.1-.6.3-.8.2-.2.5-.3.8-.3h8.7c.3 0 .6.1.8.3.2.2.3.5.3.8zM184.8 196.7c0-3.2-1.3-6.2-3.5-8.5-2.2-2.2-5.3-3.5-8.5-3.5h-8.7c-3.2 0-6.2 1.3-8.5 3.5-2.2 2.2-3.5 5.3-3.5 8.5v8.7c0 3.2 1.3 6.2 3.5 8.5 2.2 2.2 5.3 3.5 8.5 3.5h8.7c3.2 0 6.2-1.3 8.5-3.5 2.2-2.2 3.5-5.3 3.5-8.5v-8.7zm-10.9 0v8.7c0 .3-.1.6-.3.8-.2.2-.5.3-.8.3h-8.7c-.3 0-.6-.1-.8-.3-.2-.2-.3-.5-.3-.8v-8.7c0-.3.1-.6.3-.8.2-.2.5-.3.8-.3h8.7c.3 0 .6.1.8.3.2.3.3.6.3.8zM228.3 109.8c0-3.2-1.3-6.2-3.5-8.5-2.2-2.2-5.3-3.5-8.5-3.5h-8.7c-3.2 0-6.2 1.3-8.5 3.5-2.2 2.2-3.5 5.3-3.5 8.5v8.7c0 3.2 1.3 6.2 3.5 8.5 2.2 2.2 5.3 3.5 8.5 3.5h8.7c3.2 0 6.2-1.3 8.5-3.5 2.2-2.2 3.5-5.3 3.5-8.5v-8.7zm-10.9 0v8.7c0 .3-.1.6-.3.8-.2.2-.5.3-.8.3h-8.7c-.3 0-.6-.1-.8-.3-.2-.2-.3-.5-.3-.8v-8.7c0-.3.1-.6.3-.8.2-.2.5-.3.8-.3h8.7c.3 0 .6.1.8.3.2.2.3.5.3.8zM228.3 153.3c0-3.2-1.3-6.2-3.5-8.5-2.2-2.2-5.3-3.5-8.5-3.5h-8.7c-3.2 0-6.2 1.3-8.5 3.5-2.2 2.2-3.5 5.3-3.5 8.5v8.7c0 3.2 1.3 6.2 3.5 8.5 2.2 2.2 5.3 3.5 8.5 3.5h8.7c3.2 0 6.2-1.3 8.5-3.5 2.2-2.2 3.5-5.3 3.5-8.5v-8.7zm-10.9 0v8.7c0 .3-.1.6-.3.8-.2.2-.5.3-.8.3h-8.7c-.3 0-.6-.1-.8-.3-.2-.2-.3-.5-.3-.8v-8.7c0-.3.1-.6.3-.8.2-.2.5-.3.8-.3h8.7c.3 0 .6.1.8.3.2.2.3.5.3.8z" class="st0"/><path d="M173.9 21.7V12c0-3.2 1.3-6.2 3.5-8.5 2.2-2.2 5.3-3.5 8.5-3.5h8.7c3.2 0 6.2 1.3 8.5 3.5 2.2 2.2 3.5 5.3 3.5 8.5v9.8h16.3c7.2 0 14.1 2.9 19.2 8s8 12 8 19.2v173.9c0 7.2-2.9 14.1-8 19.2s-12 8-19.2 8H27.2c-7.2 0-14.1-2.9-19.2-8s-8-12-8-19.2v-174c0-7.2 2.9-14.1 8-19.2s12-8 19.2-8h16.3V12c0-3.2 1.3-6.2 3.5-8.5C49.2 1.3 52.3 0 55.4 0h8.7c3.2 0 6.2 1.3 8.5 3.5 2.2 2.2 3.5 5.3 3.5 8.5v9.8l97.8-.1zm65.2 54.4v146.7c0 4.3-1.7 8.5-4.8 11.5-3.1 3.1-7.2 4.8-11.5 4.8H27.2c-4.3 0-8.5-1.7-11.5-4.8-3.1-3.1-4.8-7.2-4.8-11.5V76.1h228.2zM43.5 32.6H27.2c-4.3 0-8.5 1.7-11.5 4.8-3.1 3.1-4.8 7.2-4.8 11.5v16.3h228.3V48.9c0-4.3-1.7-8.5-4.8-11.5-3.1-3.1-7.2-4.8-11.5-4.8h-16.3v9.8c0 3.2-1.3 6.2-3.5 8.5-2.2 2.2-5.3 3.5-8.5 3.5h-8.7c-3.2 0-6.2-1.3-8.5-3.5-2.2-2.2-3.5-5.3-3.5-8.5v-9.8H76.1v9.8c0 3.2-1.3 6.2-3.5 8.5-2.2 2.2-5.3 3.5-8.5 3.5h-8.7c-3.2 0-6.2-1.3-8.5-3.5-2.2-2.2-3.5-5.3-3.5-8.5l.1-9.8zM65.2 12v30.4c0 .3-.1.6-.3.8-.2.2-.5.3-.8.3h-8.7c-.3 0-.6-.1-.8-.3-.2-.2-.3-.5-.3-.8V12c0-.3.1-.6.3-.8.2-.2.5-.3.8-.3h8.7c.3 0 .6.1.8.3.2.2.3.5.3.8zm130.5 0v30.4c0 .3-.1.6-.3.8-.2.2-.5.3-.8.3h-8.7c-.3 0-.6-.1-.8-.3-.2-.2-.3-.5-.3-.8V12c0-.3.1-.6.3-.8.2-.2.5-.3.8-.3h8.7c.3 0 .6.1.8.3.1.2.3.5.3.8z" class="st0"/></svg>