<svg xmlns="http://www.w3.org/2000/svg" xml:space="preserve" style="enable-background:new 0 0 40 40" viewBox="0 0 40 40"><path d="M36 0H4C1.8 0 0 1.8 0 4v32c0 2.2 1.8 4 4 4h32c2.2 0 4-1.8 4-4V4c0-2.2-1.8-4-4-4zM17.1 32h-9c-1.1 0-2-.9-2-2V10c0-1.1.9-2 2-2H17c.6 0 1.1.5 1.1 1.1 0 .6-.5 1.1-1.1 1.1H9.9c-.8 0-1.5.7-1.5 1.5v16.6c0 .9.7 1.5 1.5 1.5h7.2c.6 0 1.1.5 1.1 1.1 0 .6-.5 1.1-1.1 1.1zm16.4-11.2L25 29.3c-.7.7-1.9.2-1.9-.8v-5.1h-6.9c-.6 0-1.1-.5-1.1-1.1v-4.6c0-.6.5-1.1 1.1-1.1h6.9v-5.1c0-1 1.2-1.5 1.9-.8l8.5 8.5c.5.4.5 1.2 0 1.6z" style="fill:#ebeff2"/></svg>