<?xml version="1.0" encoding="utf-8"?>
<!-- Generator: Adobe Illustrator 26.5.3, SVG Export Plug-In . SVG Version: 6.00 Build 0)  -->
<svg version="1.1" id="Calque_1" xmlns="http://www.w3.org/2000/svg" xmlns:xlink="http://www.w3.org/1999/xlink" x="0px" y="0px"
	 viewBox="0 0 40 40" style="enable-background:new 0 0 40 40;" xml:space="preserve">
<style type="text/css">
	.st0{fill:#EBEFF2;}
</style>
<g>
	<path class="st0" d="M36,0H4C1.8,0,0,1.8,0,4v32c0,2.2,1.8,4,4,4h32c2.2,0,4-1.8,4-4V4C40,1.8,38.2,0,36,0z M17.1,32H8.1
		c-1.1,0-2-0.9-2-2V10c0-1.1,0.9-2,2-2h8.9c0.6,0,1.1,0.5,1.1,1.1c0,0.6-0.5,1.1-1.1,1.1H9.9c-0.8,0-1.5,0.7-1.5,1.5v16.6
		c0,0.9,0.7,1.5,1.5,1.5h7.2c0.6,0,1.1,0.5,1.1,1.1C18.2,31.5,17.7,32,17.1,32z M33.5,20.8L25,29.3c-0.7,0.7-1.9,0.2-1.9-0.8v-5.1
		h-6.9c-0.6,0-1.1-0.5-1.1-1.1v-4.6c0-0.6,0.5-1.1,1.1-1.1h6.9v-5.1c0-1,1.2-1.5,1.9-0.8v0l8.5,8.5C34,19.6,34,20.4,33.5,20.8z"/>
</g>
</svg>
