<svg width="245" height="121" viewBox="0 0 245 121" fill="none" xmlns="http://www.w3.org/2000/svg">
<g clip-path="url(#clip0_500_1957)">
<path d="M95.0444 20.5176H93.5627H-201.291H-202.622H-203.953V25.6492H-201.291V21.3948H93.5627V25.6667H96.2245V20.5176H95.0444Z" fill="white"/>
<path d="M-2.48282 -22.6754L-2.80223 -22.8596H-182.809L-171 120.623H245.248L-2.48282 -22.6754ZM-21.3903 -20.1579L-5.27768 -9.85962H-159.022V-9.03506L-161.772 -20.1579H-21.3992H-21.3903ZM-77.4029 -7.15786H-1.05434L116.41 67.9386H-9.00417L-77.4029 -7.14909V-7.15786ZM-12.6863 67.9386H-140.008L-158.56 -7.14909H-81.085L-12.6863 67.9474V67.9386ZM-168.48 117.912L-179.846 -20.1579H-164.585L-130.487 117.912H-168.48ZM35.7935 117.912L32.2541 114.007L28.6777 114.009L32.2178 117.912H-127.657L-138.925 70.6492H120.642L194.577 117.912H35.7935ZM121.84 67.9386H121.449L-16.3595 -20.1579H-3.54753L235.16 117.912H199.617L121.84 67.9386Z" fill="white"/>
<path d="M51.7374 67.9474L-0.459961 25.6667H3.73676L55.9341 67.9474H51.7374Z" fill="#DDFF00"/>
<path opacity="0.75" d="M93.5624 21.3948H-201.282V25.6579H93.5624V21.3948Z" fill="#002333"/>
<path d="M93.0572 63.0351L92.4982 62.0351C66.4483 15.1754 -22.1355 -13.7632 -23.0228 -14.0527C-23.4841 -14.2018 -23.7414 -14.7018 -23.5906 -15.1579C-23.4398 -15.6141 -22.934 -15.8684 -22.4727 -15.7193C-21.5765 -15.4298 66.4927 13.3421 93.5363 60.2631C97.9903 56.7456 119.693 42.0789 158.838 53.6666C159.309 53.807 159.575 54.2982 159.433 54.7631C159.291 55.2281 158.794 55.4912 158.333 55.3509C115.398 42.6491 94.113 62.0526 93.9089 62.2544L93.0749 63.0438L93.0572 63.0351Z" fill="#ddff00"/>
</g>
<defs>
<clipPath id="clip0_500_1957">
<path d="M0 23C0 10.2975 10.2975 0 23 0H245V121H0V23Z" fill="white"/>
</clipPath>
</defs>
</svg>
