<svg width="245" height="121" viewBox="0 0 245 121" fill="none" xmlns="http://www.w3.org/2000/svg">
<g clip-path="url(#clip0_500_1934)">
<path d="M395.123 31.3923L133.709 31.3689H131.36V35.9685H133.709V32.1511L393.949 32.1746V35.9685H396.297V31.7835V31.3923H395.123Z" fill="white"/>
<path d="M218.841 -7.29031L0 120.664H367.218L377.558 -5.98394L377.668 -7.29031H218.833H218.841ZM359.117 -4.88096L356.862 4.33404H220.915L235.177 -4.88096H359.109H359.117ZM287.887 6.68082H356.291L339.916 73.7125H227.623L287.879 6.68864L287.887 6.68082ZM224.461 73.7125H113.553L217.283 6.68864H284.724L224.453 73.7203L224.461 73.7125ZM8.90767 118.246L219.49 -4.88096H230.848L40.3193 118.246H8.90767ZM187.938 118.246L190.693 115.172H187.538L184.783 118.246H44.6479L109.921 76.0593H339.305L329.028 118.246H187.938ZM364.995 118.246H331.447L361.528 -4.88096H375.046L364.987 118.246H364.995Z" fill="white"/>
<path opacity="0.75" d="M393.949 32.1511H133.709V35.9685H393.949V32.1511Z" fill="#002333"/>
</g>
<defs>
<clipPath id="clip0_500_1934">
<path d="M0 0H223C235.15 0 245 9.84974 245 22V121H0V0Z" fill="white"/>
</clipPath>
</defs>
</svg>
