<?xml version="1.0" encoding="utf-8"?>
<!-- Generator: Adobe Illustrator 26.5.3, SVG Export Plug-In . SVG Version: 6.00 Build 0)  -->
<svg version="1.1" id="Calque_1" xmlns="http://www.w3.org/2000/svg" xmlns:xlink="http://www.w3.org/1999/xlink" x="0px" y="0px"
	 viewBox="0 0 61 56" style="enable-background:new 0 0 61 56;" xml:space="preserve">
<style type="text/css">
	.st0{fill:#EBEFF2;}
	.st1{fill:#DDFF00;}
</style>
<rect x="59" class="st0" width="2" height="56"/>
<polygon class="st0" points="48,0 48,8.9 0.1,8.9 0.1,11.1 8,11.1 8,56 10,56 10,11.1 48,11.1 48,56 50,56 50,0 "/>
<g>
	<polygon class="st1" points="30.3,25.7 48,15.5 48,14.8 30,25.2 	"/>
	<polygon class="st1" points="30.3,29.1 48,18.8 48,18.2 30,28.6 	"/>
	<polygon class="st1" points="30.3,32.4 48,22.1 48,21.5 30,31.9 	"/>
	<polygon class="st1" points="30.3,35.7 48,25.5 48,24.8 30,35.2 	"/>
	<polygon class="st1" points="30.3,39.1 48,28.8 48,28.2 30,38.6 	"/>
	<polygon class="st1" points="30.3,42.4 48,32.1 48,31.6 30,41.9 	"/>
	<polygon class="st1" points="30.3,45.7 48,35.5 48,34.8 30,45.2 	"/>
	<polygon class="st1" points="30.3,49 48,38.8 48,38.2 30,48.6 	"/>
	<polygon class="st1" points="30.3,52.4 48,42.1 48,41.5 30,51.9 	"/>
	<path class="st1" d="M30,55.2l18-10.4v0.6L30.3,55.7L30,55.2z"/>
	<path class="st1" d="M35.6,56h-1.1L48,48.2v0.6L35.6,56z"/>
	<polygon class="st1" points="30.3,22.4 48,12.2 48,11.5 30,21.9 	"/>
	<path class="st1" d="M43,11.1h1.1l-13.8,8L30,18.6L43,11.1z"/>
	<path class="st1" d="M37.2,11.1h1.1l-8,4.6L30,15.3L37.2,11.1z"/>
	<path class="st1" d="M41.4,56h-1.1l7.7-4.5v0.6L41.4,56z"/>
</g>
</svg>
