<svg xmlns="http://www.w3.org/2000/svg" viewBox="0 0 1242 377.7" style="enable-background:new 0 0 1242 377.7" xml:space="preserve"><path d="M1243 47.5c0-15.3-6.5-27.8-18.4-37.3-9.3-7.4-20-10.2-31.9-10.2H47.5C21.3.3.1 21.2.1 47.4 0 141.6 0 235.8 0 330c-.1 7.6 1.7 15 5.3 21.7 9.7 17.7 24.8 26.2 45.1 26.2H1196c26.1-.6 47.1-21.3 47.1-47.5 0-94.3 0-188.6-.1-282.9z" style="fill:#fff"/><path d="M1243 47.6c0-15.3-6.5-27.8-18.4-37.3-9.3-7.4-20-10.2-31.9-10.2H47.5C21.3.4.1 21.3.1 47.5 0 141.7 0 235.9 0 330.1c-.1 7.6 1.7 15 5.3 21.7C15 369.5 30.1 378 50.4 378H1196c26.1-.6 47.1-21.3 47.1-47.5 0-94.3 0-188.6-.1-282.9zM909.1 62.2c3-.2 2.3 2 2.3 3.6v23.5c5.7-7.8 12.7-9.5 20.6-8.6 7.3.8 12.8 5.7 13.9 13 1.5 9.7.4 19.5.6 29.3 0 1.7-1 1.9-2.4 1.9-1.7 0-1.9-1-1.9-2.4V100c-.2-10.4-4.9-15.7-14.1-15.7-9.8-.1-16.4 6-16.7 15.7-.2 7.1 0 14.2-.1 21.3 0 1.6.7 3.7-2.3 3.6-2.8-.1-1.8-2.2-1.8-3.6-.1-18.5-.1-37 0-55.5 0-1.3-.9-3.4 1.9-3.6zm-112 18.5c2.4 0 2 1.6 2.1 3s0 3 0 4.4c5.7-6.2 12.3-8.2 20-7.5 8.2.7 14.1 6.1 15 14.2.9 9.2.2 18.5.4 27.7 0 1.4-.3 2.3-2 2.3s-2.3-.8-2.3-2.5V99.8c-.1-10.2-4.7-15.3-13.8-15.6-9.8-.3-16.6 5.8-17 15.4-.3 7.2-.1 14.5-.1 21.7 0 1.4.7 3.4-2 3.5s-2.2-1.7-2.2-3.3V83.7c-.1-1.3-.5-3 1.9-3zM650.6 62.2c2.5-.1 2.3 1.6 2.3 3.2V121.8c0 1.4.5 3-1.9 3.2-2.6.1-2.3-1.6-2.3-3.2V65.5c0-1.5-.5-3.2 1.9-3.3zm-112 49.6c.3-5.8 4.1-9.8 10.5-11 5.7-1 11.5-.6 17.3-.5 3 .1 4-.8 3.8-3.8-.3-7.4-3.8-11.5-11.2-12.2-5.3-.5-10.5.9-14.9 3.8-1 .7-2 2.1-3.3.2s.2-2.6 1.4-3.4c6.3-4.1 13.9-5.4 21.2-3.6 6.4 1.5 10.4 5.9 10.7 12.5.4 9.6.2 19.3.3 29 0 1.4-.3 2.3-2 2.3s-2.1-.8-2.1-2.2v-5c-6.7 7.7-14.3 8.6-22.4 6.5-6.4-1.8-9.7-6.5-9.3-12.6zm-38.2-48.6c1.9.2 3.4 1.1 3.5 3.1.3 1.7-.9 3.4-2.6 3.7h-.6c-1.7.2-3.3-1-3.5-2.7V67c-.3-2.2 1.1-3.4 3.2-3.8zm0 61.7c-2.4-.1-2-1.7-2-3.1V83.6c0-1.5-.1-3 2.2-2.9 2.3.1 2 1.7 2 3.1v37.8c0 1.5.5 3.4-2.2 3.3zm-55.1-13.4c.4-5.7 4.4-9.7 10.7-10.8 5.7-1 11.5-.6 17.3-.5 2.9 0 3.6-.9 3.5-3.7-.2-7.6-3.9-11.8-11.4-12.4-5.3-.4-10.5 1-14.9 4-1.2.8-2.2 1.5-3.2-.2-1.1-1.7.1-2.2 1.1-2.8 7.4-4.8 15.4-6.2 23.8-3.2 5.1 1.6 8.5 6.3 8.5 11.6.4 9.6.2 19.3.3 29 0 1.3-.1 2.4-1.9 2.4-1.9 0-2.2-1-2.2-2.5 0-1.2.4-2.4-.7-3.9-5 6.1-11.6 7.2-18.8 6.4-7.8-.9-12.6-6.3-12.1-13.4zM398 81.1c2.7-1.1 4.1 0 5.2 2.6 4.6 10.7 9.4 21.3 14.2 32 .5 1.2 1.1 2.3 1.8 3.6 1.7-1.3 2-3.1 2.7-4.6 4.7-10.2 9.3-20.5 13.8-30.8 1-2.5 2.2-3.9 5.5-2.6-6.4 14.1-12.7 28.1-19 41.9-.7 1.6-2.5 2.3-4 1.7-.7-.3-1.3-.8-1.6-1.5-6.3-13.9-12.4-27.9-18.6-41.8-.1-.2 0-.3 0-.5zm-56 39.7c7.8-17.1 15.7-34.1 23.5-51.2.8-1.7 1-3.9 3.8-4s3.2 2.1 4 3.8c7.9 17.2 15.8 34.4 23.6 51.6.5 1.1 2.3 2.8.6 3.7-1.9 1-3.7.1-4.7-2.3-1.5-3.9-3.5-7.6-5.1-11.4-.8-2-1.9-2.9-4.2-2.8-9.5.1-19 .1-28.6 0-1.8-.2-3.4.9-4 2.6-1.5 3.7-3.4 7.3-4.9 11-1.1 2.8-2.6 4-5.5 2.8.1-1.5 1-2.6 1.5-3.8zM83.8 67c30.2 15.4 60.3 31 90.6 46.2 22.8 11.5 44.4 24.9 66.6 37.3 2.4 1.3 2.3 2.1.4 4-10.9 10.4-21.8 20.9-32.7 31.5-1.6 1.6-2.6 2-4.5.2-40.6-39.4-81.3-78.7-122-118-.1-.1-.2-.2-.2-.3-1-.4-1.8-1.2-2.1-2.3 1.7-.6 2.8.6 3.9 1.4zM70 320V68.8c8.4 8.2 16.1 15.6 23.8 23.1 34.3 33.2 68.7 66.4 103.1 99.5 2.4 2.3 2.9 3.5.1 6.1-41.3 39.7-82.5 79.4-123.6 119.3-1 1-2 1.8-3.4 3.2zm166.8-84.2c-45.8 26.8-92.6 52-139 77.6-4.4 2.5-8.9 4.8-13.4 7.1-.7 1.1-2 1.7-3.4 1.5.2-1 1-1.2 1.6-1.5 22.7-22 45.4-44 68.2-66.1 17.6-17.1 35.3-34.1 52.9-51.2 2-2 3.2-2.4 5.4-.1 9.3 9.3 18.7 18.4 28.3 27.4 2.6 2.5 2.5 3.4-.6 5.3zm62.1-36c-16.1 9.3-32.3 18.6-48.3 28-1.8 1-2.8.6-4.1-.7-10.5-10.2-21-20.3-31.5-30.4-1.6-1.5-1.9-2.4-.1-4.1 11.7-11.2 23.4-22.5 35-33.8 1.6-1.5 2.7-1.5 4.5-.5 14.7 8.6 29.4 17.1 44.2 25.5 3.1 1.8 5 4.3 5.1 8.2-.1 3.3-1.9 6.3-4.8 7.8zm53.5 38.2c3.6 15 16.2 25.3 32.3 26.1 6.9.4 13.7-.8 20-3.6 1.8-.6 3-2.4 2.8-4.2-.1-8.2 0-16.4-.1-24.5-.1-2.7.8-3.5 3.4-3.4 3.6.2 7.2.2 10.9 0 2.6-.1 3.2.9 3.2 3.3-.1 5.6 0 11.3 0 16.9 0 5.4-.1 10.7 0 16.1.3 2-.7 4-2.5 5-20.8 12.7-42.4 15-64.2 3.5-18.9-10-28.2-31.2-24.3-52.6a49.13 49.13 0 0 1 41.4-40.6c16.3-2.6 31.9-.7 45.4 9.8 6.1 4.7 6 4.8.5 10.1-2 2-3.8 4.9-6.2 5.5-2.6.6-4.4-2.9-6.7-4.3-13.1-7.8-26.5-8.3-39.8-1.3-13.6 6.8-19.8 22.5-16.1 38.2zm166 18.1c-5.8 14.7-19.9 23.6-40.5 23.6-12.1-.3-24.8-5.7-32.3-19.6-7.1-13.4-6.8-27.2 1.3-40.2 10.5-16.8 35.3-22.4 54.2-12.6 17.3 9 24.8 30 17.3 48.8zm4-131.2c-2.3-.1-2.1-1.6-2.1-3.1V65.1c0-1.5-.2-3 2.1-3 2.6 0 2.3 1.7 2.3 3.3v56.2c.1 1.7.3 3.4-2.3 3.3zm82.3 139.4c-10.9 15.4-34.7 20.2-52.7 11-16.7-8.5-24.3-28.2-18.3-46.8 5.2-15.8 20.1-25.9 41.3-25.7 12.7.4 25.8 6.1 32.9 20.8 6.8 13.9 5.9 27.9-3.2 40.7zm-8.9-148.7v6.4c0 1.5.2 3-2.1 3s-1.9-1.8-1.9-3.1v-39c0-5.4-.1-10.7.1-16.1.1-1.6-1.5-4.6 2.1-4.4 3.6.1 1.8 3.1 1.9 4.6.2 7.3.1 14.7.1 23.2 5.9-7.6 12.9-10.5 21.3-9.4 5.3.6 10.1 3.2 13.4 7.4 7.5 9.2 6.4 24.2-2.3 31.8-9.5 8.1-22.4 6.7-32.6-4.4zm107.9 151.1c0 3.6-.2 7.2-.8 10.8-2.3 15.2-11 25-26 28.1-16.1 3.3-31.7 1.7-46.5-6.3-3.3-1.8-4.5-3.6-1.8-7 2-2.5 2.8-6.6 5.2-7.9 2.8-1.5 5.3 2.4 8.2 3.5 8.2 3.3 16.7 5 25.5 3.8 13.4-1.7 20.4-11.5 17.9-25.1-20.7 12.7-42 11-54.7-4.4-11.3-13.6-10.8-34.8.9-47.8 13.3-14.6 34.9-15.6 54.6-2.4.1-.2.4-.4.4-.6.7-8 .7-8 8.9-8 8 0 8 0 8 8 .2 18.5.2 36.9.2 55.3zm.8-162.8c-5.1-.2-10.2 0-15.3 0-5.2 0-10.5.2-15.7-.1-3.5-.2-3.7 1.1-3 4 3 12.6 19.2 18 29.8 9.8 1-.8 1.9-3.2 3.8-.9 1.8 2.1-.4 2.8-1.5 3.7-6.6 5.5-17.8 6.3-25.8 1.9s-12.1-13.2-10.8-22.9c1.2-9.1 7-16 15.3-18.3 11.1-3.1 22.6 3.3 25.8 14.4.4 1.5.7 3 .8 4.6.1 2.8-.5 4-3.4 3.8zm36.1 174.9c-3.5-.2-7-.2-10.5 0-2.6.1-3.5-.7-3.4-3.4.2-7.5.1-15 .1-22.5 0-24.8.1-49.6-.1-74.4 0-3.5.9-4.8 4.5-4.4 3.2.3 6.4.3 9.6 0 2.8-.2 3.7.8 3.7 3.6-.1 16.4-.1 32.7-.1 49.1 0 16.1-.1 32.2.1 48.2 0 3-.9 4-3.9 3.8zm-2.7-176.2c.1-13 9.4-22.1 22.1-22.1 12.9 0 22 9.4 21.9 22.5-.1 12.9-9.3 22.1-22 22.1-12.9 0-22.1-9.5-22-22.5zm100.3 141.7c-.1 2.7-1.7 2.5-3.5 2.5h-26.1c-8.6 0-17.2.2-25.7-.1-3.9-.1-3.9 1.3-2.7 4.2 2.3 6 7.3 10.6 13.5 12.3 10.1 3.1 19.7 2 28.1-4.8 1.8-1.5 2.8-1.4 4.1.4 1 1.4 2.3 2.6 3.4 4 4.5 5.2 4.5 5.2-.8 9.3-23.3 17.9-60.8 4.8-66.3-23.1-3.6-18.1 5-35.8 20.9-42.9 16.9-7.6 37-3.2 47.5 10.4 6 8.3 8 17.7 7.6 27.8zM892.1 124c-9.6 4.2-17.7-1.2-17.8-11.7v-11.7c0-4.3-.2-8.6 0-12.9.1-2.7-.9-3.6-3.5-3.3-.9.1-1.9.1-2.8 0-1.3 0-1.9-.6-1.9-2 0-1.2.6-1.9 1.7-1.7 6.4 1.3 7-2.3 6.4-7.2-.2-1.6.3-2.5 2.2-2.5 2 0 1.9 1.3 2 2.7.4 6.9.4 6.9 7.4 6.9h4.8c1.1 0 1.8.4 1.8 1.6.1 1.2-.5 2-1.8 2.1-3.1 0-6.2.1-9.2 0-2.2-.1-3.1.6-3.1 3 .1 8.4-.1 16.9.1 25.3.2 7.4 5.4 10.7 12.5 8 1.2-.5 2.5-2.2 3.6.2 1.2 2.6-1.2 2.7-2.4 3.2zm69.1 120.8c-7.3 4-15.4 5.3-23.7 5.5-6.6.1-13.2.2-19.7 0-2.9-.1-4 .7-3.9 3.8.2 7.1 0 14.2.1 21.3.1 2.6-.8 3.5-3.4 3.4-3.6-.3-7.2-.3-10.8 0s-4.1-1.2-4.1-4.4c.1-15 .1-30 .1-45 0-15.2.1-30.3-.1-45.5 0-3 .8-3.9 3.8-3.9 12.6.2 25.2 0 37.8.1 8.3 0 16.3 1.4 23.7 5.3 11.8 6.3 17.2 16.4 17.3 29.6 0 13.3-5.3 23.4-17.1 29.8zm-.6-133.8c-3-8.9-1.8-17.4 4.8-24.3 5.9-6.2 13.4-7.5 21.5-5.2 8.4 2.4 14.5 11.1 14.5 19.8 0 2.2-1 2.7-2.9 2.7H982c-5 0-9.9.2-14.9-.1-3.8-.2-3.9 1.5-3.2 4.3 3 12 18.5 17.4 29 10 .4-.3.9-.6 1.3-1 1-.8 1.7-2.2 3.2-.5s0 2.6-1 3.5c-11.1 9.9-31 4.9-35.8-9.2zm48.5 167.9c-2.7-.3-5.3-.3-8 0-3.6.4-4.8-.7-4.8-4.5.2-16 .1-32 .1-47.9 0-16 .1-31.9-.1-47.9 0-3.6 1.1-4.7 4.5-4.4 2.8.3 5.6.3 8.4 0 3.6-.4 4.8.8 4.8 4.6-.2 21.5-.1 42.9-.1 64.4 0 10.3-.2 20.7.1 31 .2 3.9-1.1 5.1-4.9 4.7zm91-2.7c0 1.9-.8 2.6-2.6 2.5-3.4-.2-6.7-.2-10.1 0-3.3.3-4.3-1-3.9-4.1.1-1.4.1-2.9.1-4.3-10.8 10.5-23 11.1-35.6 7.5-10.7-3-16.6-11.5-16.2-21.8.5-10.2 6.8-17.4 17.8-20 9.1-2.1 18.4-1.3 27.7-1.4 5.7-.1 6-.3 4.7-5.9-1-5.3-5.2-9.5-10.5-10.5-9.5-2.3-19.6-.7-27.8 4.6-2.4 1.5-3.4 1.3-4.4-1.2-.7-1.5-1.4-2.9-2.3-4.3-3.3-6.1-3.3-6.2 3-9.2 12.1-5.8 25.8-7.2 38.8-4 12.4 3 20 11.7 20.8 24.5 1 16 .3 31.8.5 47.6zm90.1-69c-9.2 21-18.3 42-27.4 63-3 7-5.8 14.2-9.3 20.9-8.2 15.7-27 20.7-42.5 11.8-3.1-1.8-4.1-3.6-1.7-6.5.4-.6.7-1.1 1-1.8 1.2-2.2 2-5.3 3.9-6.4s3.9 1.9 6.1 2.8c9.8 3.8 18.7-.8 21.1-11 .4-1.7-.5-2.9-1-4.2-9.8-22.7-19.7-45.5-29.7-68.2-1.4-3.3-1.3-4.4 2.6-4.2 4.5.3 9.9-1.2 13.4.7s4.1 7.8 5.9 11.9c5.5 12.8 10.9 25.6 16.4 38.5.5 1.3 1.1 2.4 1.6 3.7 1.5-1 1.7-2.5 2.2-3.9 6.8-15.8 13.6-31.5 20.2-47.3 1.1-2.6 2.3-3.9 5.3-3.6 3.1.2 6.2.2 9.2 0 3.5-.1 4.1.7 2.7 3.8z"/><path d="m82 67.9 1.7-.9c-1-.6-1.7-.5-1.7.9zM82.8 320.7c.5.4 1.2.3 1.6-.1h-1.7l.1.1zM663.8 217.6c-11-.1-19.7 5.7-22.4 14.9-.3.9-.5 1.8-.6 2.7-2 14.6 7.5 25.2 22.6 25.2 4.3.1 8.6-.9 12.4-2.9 8.5-4.8 12.3-14.3 9.8-24.2-2.3-9.4-10.8-15.5-21.8-15.7zM943.6 196.5c-9.2-1.6-18.5-.5-27.7-.7-2-.1-1.9 1.4-1.9 2.8V232c0 1.6.2 3 2.3 2.9 9.2-.3 18.5.9 27.7-.8 10.6-2.1 15.9-8.7 15.8-19.1-.2-10.2-5.6-16.7-16.2-18.5zM800.3 216.7c-10 0-18.5 6.2-20.8 15.1-.6 2.5-.1 3.4 2.6 3.3 6.1-.1 12.1 0 18.1 0 6.2 0 12.3-.1 18.5 0 2.5 0 2.9-.8 2.4-3.1-2.4-9-10.8-15.2-20.8-15.3zM1075.5 246.5c-1.8-.1-3.5-.1-5.3 0-4.2.1-8.9-.4-13.5.8-4.8 1.3-7.4 4.3-7.6 8.7s2.2 7.9 6.6 9.6c4.3 1.5 9 1.8 13.5.6 5.5-1.3 9.9-4.1 12.5-9.3 1.4-2.9 1.6-6.3.4-9.4-.9-2.4-4.3-.7-6.6-1zM481.2 217.6c-13.2-.1-22.4 9.4-22.5 23.4s9 23.6 22.2 23.6c13.1 0 22.2-9.5 22.3-23.2.2-13.9-8.7-23.7-22-23.8zM572.3 217.6c-13.2-.2-22.5 9.2-22.7 23.2s8.8 23.7 22 23.8c13 .2 22.3-9.4 22.5-23 .3-13.9-8.5-23.7-21.8-24zM613.6 84.3c-10.3 0-17.8 7.9-17.8 18.7.1 10.6 7.6 18.3 17.7 18.3 10.4 0 17.8-7.8 17.7-18.7 0-10.6-7.3-18.3-17.6-18.3zM356.7 104.6h25.8c1.6 0 2.3-.5 1.5-2.1l-14.5-31.9-14.3 31.4c-.8 1.7-.9 2.6 1.5 2.6zM687.3 84.2c-8.1-.3-15.2 5.3-16.8 13.3-.4 2.2-.1 3.2 2.4 3.1 4.7-.1 9.4 0 14.1 0 4.7 0 9.4-.1 14 0 2.1 0 2.8-.6 2.5-2.8-1.2-7.5-8.2-13.5-16.2-13.6zM966.2 100.6c4.6-.1 9.3 0 14 0s9.3-.1 14 0c2.5.1 2.9-.9 2.5-3.1-1.3-7.4-8.4-13.2-16.4-13.3-8.1-.1-15.3 5.8-16.5 13.5-.3 2.1.2 2.9 2.4 2.9zM561.7 120.4c5.4-2 8.3-6.4 8.3-12.4-.9-1 1.7-4.2-1.9-4.3-6.3-.1-12.6-.8-18.8.6-6.7 1.5-9.1 9.7-4.2 14.1s10.8 4.1 16.6 2zM453.2 119.5c7.1 4.9 19.3 1.7 22.9-6.1 1.3-2.8 1.4-6.1.3-9-.8-1.9-3.9-.6-5.9-.8-1.1-.1-2.1-.1-3.2 0-3.7 0-7.6-.2-11.2.7-3.6.9-5.9 3.1-6.4 6.9-.7 3.2.7 6.5 3.5 8.3zM759.8 84.3c-10.2.1-17.5 7.9-17.5 18.5 0 10.8 7.7 18.7 17.9 18.6s17.5-7.8 17.5-18.6-7.8-18.6-17.9-18.5z"/></svg>