<svg xmlns="http://www.w3.org/2000/svg" id="Calque_1" viewBox="0 0 40 40"><defs><style>.cls-1{fill:#fff}</style></defs><rect width="40" height="40" rx="4" ry="4"/><path d="M24.61 13.2h-9.22c-2.34 0-4.26 2.03-4.26 4.51v12.74c0 .85.65 1.54 1.46 1.54h4.34c.2 0 .35-.17.35-.38v-5.97c0-.65.5-1.17 1.11-1.17h3.46c.61 0 1.11.53 1.11 1.17v5.97c0 .21.16.38.35.38h4.1c.8 0 1.46-.69 1.46-1.54V17.71c0-2.48-1.91-4.51-4.26-4.51Z" class="cls-1"/><path d="M8.42 17.4 19 8.44c.55-.59 1.45-.59 2.01 0l10.58 8.96c.89.95.26 2.57-1 2.57H9.42c-1.26 0-1.9-1.62-1-2.57Z" class="cls-1"/></svg>