<?xml version="1.0" encoding="utf-8"?>
<!-- Generator: Adobe Illustrator 26.5.3, SVG Export Plug-In . SVG Version: 6.00 Build 0)  -->
<svg version="1.1" id="Calque_1" xmlns="http://www.w3.org/2000/svg" xmlns:xlink="http://www.w3.org/1999/xlink" x="0px" y="0px"
	 viewBox="0 0 40 40" style="enable-background:new 0 0 40 40;" xml:space="preserve">
<style type="text/css">
	.st0{fill:#EBEFF2;}
</style>
<g>
	<path class="st0" d="M36,0H4C1.8,0,0,1.8,0,4v32c0,2.2,1.8,4,4,4h32c2.2,0,4-1.8,4-4V4C40,1.8,38.2,0,36,0z M30.6,20h-1.7v10.5
		c0,0.8-0.7,1.5-1.5,1.5h-4.1c-0.2,0-0.3-0.2-0.3-0.4v-6c0-0.6-0.5-1.2-1.1-1.2h-3.5c-0.6,0-1.1,0.5-1.1,1.2v6
		c0,0.2-0.2,0.4-0.4,0.4h-4.3c-0.8,0-1.5-0.7-1.5-1.5V20H9.4c-1.3,0-1.9-1.6-1-2.6l10.6-9c0.5-0.6,1.5-0.6,2,0l10.6,9
		C32.5,18.3,31.8,20,30.6,20z"/>
</g>
</svg>
