<?xml version="1.0" encoding="utf-8"?>
<!-- Generator: Adobe Illustrator 26.5.3, SVG Export Plug-In . SVG Version: 6.00 Build 0)  -->
<svg version="1.1" id="Calque_1" xmlns="http://www.w3.org/2000/svg" xmlns:xlink="http://www.w3.org/1999/xlink" x="0px" y="0px"
	 viewBox="0 0 61 56" style="enable-background:new 0 0 61 56;" xml:space="preserve">
<style type="text/css">
	.st0{fill:#EBEFF2;}
	.st1{fill:#DDFF00;}
</style>
<g>
	<rect class="st0" width="2" height="56"/>
	<polygon class="st0" points="60.9,8.9 13,8.9 13,0 11,0 11,8.9 11,11.1 11,56 13,56 13,11.1 51,11.1 51,56 53,56 53,11.1 
		60.9,11.1 	"/>
	<g>
		<polygon class="st1" points="33,41.8 51,52.2 51,51.6 33.3,41.4 		"/>
		<polygon class="st1" points="33,38.5 51,48.9 51,48.3 33.3,38 		"/>
		<polygon class="st1" points="33,35.2 51,45.6 51,44.9 33.3,34.7 		"/>
		<polygon class="st1" points="33,31.8 51,42.3 51,41.6 33.3,31.4 		"/>
		<polygon class="st1" points="33,28.5 51,38.9 51,38.3 33.3,28 		"/>
		<polygon class="st1" points="33,25.2 51,35.5 51,35 33.3,24.7 		"/>
		<polygon class="st1" points="33,21.9 51,32.3 51,31.6 33.3,21.4 		"/>
		<polygon class="st1" points="33,18.5 51,28.9 51,28.3 33.3,18 		"/>
		<polygon class="st1" points="33,15.2 51,25.6 51,25 33.3,14.7 		"/>
		<path class="st1" d="M33.3,11.4L51,21.6v0.6L33,11.9L33.3,11.4z"/>
		<path class="st1" d="M51,18.3v0.6l-13.5-7.8h1.1L51,18.3z"/>
		<polygon class="st1" points="33,45.2 51,55.6 51,54.9 33.3,44.7 		"/>
		<path class="st1" d="M33,48.5l0.3-0.5l13.8,8H46L33,48.5z"/>
		<path class="st1" d="M33,51.8l0.3-0.5l8,4.6h-1.1L33,51.8z"/>
		<path class="st1" d="M51,14.9v0.6L43.3,11h1.1L51,14.9z"/>
	</g>
</g>
</svg>
