<?xml version="1.0" encoding="utf-8"?>
<!-- Generator: Adobe Illustrator 26.5.3, SVG Export Plug-In . SVG Version: 6.00 Build 0)  -->
<svg version="1.1" id="Calque_1" xmlns="http://www.w3.org/2000/svg" xmlns:xlink="http://www.w3.org/1999/xlink" x="0px" y="0px"
	 viewBox="0 0 61 56" style="enable-background:new 0 0 61 56;" xml:space="preserve">
<style type="text/css">
	.st0{fill:#EBEFF2;}
	.st1{fill:#DDFF00;}
</style>
<rect x="59" class="st0" width="2" height="56"/>
<polygon class="st0" points="48,0 48,8.9 0.1,8.9 0.1,11.1 8,11.1 8,56 10,56 10,11.1 48,11.1 48,56 50,56 50,0 "/>
<polygon class="st1" points="28,25.3 10,14.9 10,15.5 27.7,25.7 "/>
<polygon class="st1" points="28,28.6 10,18.2 10,18.8 27.7,29.1 "/>
<polygon class="st1" points="28,31.9 10,21.5 10,22.2 27.7,32.4 "/>
<polygon class="st1" points="28,35.3 10,24.8 10,25.5 27.7,35.7 "/>
<polygon class="st1" points="28,38.6 10,28.2 10,28.8 27.7,39.1 "/>
<polygon class="st1" points="28,41.9 10,31.6 10,32.2 27.7,42.4 "/>
<polygon class="st1" points="28,45.2 10,34.8 10,35.5 27.7,45.7 "/>
<polygon class="st1" points="28,48.6 10,38.2 10,38.8 27.7,49.1 "/>
<polygon class="st1" points="28,51.9 10,41.5 10,42.1 27.7,52.4 "/>
<path class="st1" d="M27.7,55.7L10,45.5v-0.6l18,10.4L27.7,55.7z"/>
<path class="st1" d="M10,48.8v-0.6L23.6,56h-1.1L10,48.8z"/>
<polygon class="st1" points="28,21.9 10,11.5 10,12.2 27.7,22.4 "/>
<path class="st1" d="M28,18.6l-0.3,0.5l-13.8-8H15L28,18.6z"/>
<path class="st1" d="M28,15.3l-0.3,0.5l-8-4.6h1.1L28,15.3z"/>
<path class="st1" d="M10,52.2v-0.6l7.7,4.5h-1.1L10,52.2z"/>
</svg>
