<?xml version="1.0" encoding="utf-8"?>
<!-- Generator: Adobe Illustrator 26.5.3, SVG Export Plug-In . SVG Version: 6.00 Build 0)  -->
<svg version="1.1" id="Calque_1" xmlns="http://www.w3.org/2000/svg" xmlns:xlink="http://www.w3.org/1999/xlink" x="0px" y="0px"
	 viewBox="0 0 40 40" style="enable-background:new 0 0 40 40;" xml:space="preserve">
<style type="text/css">
	.st0{fill:#EBEFF2;}
</style>
<g>
	<path class="st0" d="M36,0H4C1.8,0,0,1.8,0,4v32c0,2.2,1.8,4,4,4h32c2.2,0,4-1.8,4-4V4C40,1.8,38.2,0,36,0z M20,8
		c2.7,0,4.8,2.2,4.8,4.8c0,2.7-2.2,4.9-4.8,4.9s-4.8-2.2-4.8-4.9C15.2,10.2,17.3,8,20,8z M29.7,27.8c0,2.3-1.9,4.2-4.2,4.2h0h0H14.5
		c-2.3,0-4.2-1.9-4.2-4.2v-2.2c0-3.1,2.6-5.7,5.7-5.7h8c3.1,0,5.7,2.6,5.7,5.7V27.8z"/>
</g>
</svg>
