<?xml version="1.0" encoding="UTF-8"?><svg id="Calque_1" xmlns="http://www.w3.org/2000/svg" viewBox="0 0 100 97.69"><defs><style>.cls-1{stroke-linecap:round;stroke-linejoin:round;stroke-width:2.35px;}.cls-1,.cls-2{fill:none;stroke:#df0;}.cls-2{stroke-miterlimit:10;stroke-width:3.53px;}</style></defs><path class="cls-2" d="M26.23,84.66l.16-71.52c.01-6.21,5.11-11.31,11.32-11.32l24.47-.06c6.21-.01,11.28,5.05,11.26,11.26l-.16,71.52c-.01,6.21-5.11,11.31-11.32,11.32l-24.47,.06c-6.21,.01-11.28-5.05-11.26-11.26Z"/><path class="cls-1" d="M14.98,81.67C-3.37,63.32-3.43,33.65,14.83,15.39l-7.09-.75"/><path class="cls-1" d="M85.02,15.16c18.35,18.35,18.41,48.02,.15,66.28l7.09,.75"/><ellipse class="cls-1" cx="48.96" cy="88.05" rx="1.77" ry="1.76" transform="translate(-47.92 60.41) rotate(-45)"/></svg>