<svg xmlns="http://www.w3.org/2000/svg" xml:space="preserve" id="Calque_1" x="0" y="0" style="enable-background:new 0 0 250 250" version="1.1" viewBox="0 0 250 250"><style>.st0{fill:#ebeff2}</style><path d="M24.5 40.3c-7.4-12.5-7-31.5 4.3-38.2 11.7-6.6 28.4 3.1 35.4 15.2 6.6 10.9 4.7 22.6-4.7 30l14.8 25.3h1.9c4.3 0 8.2 1.9 10.9 5.5l18.3 24.9c23.7-17.9 31.9-23 35-24.1 12.5-11.7 21.4-38.9 24.1-48.7 1.9-7 9-11.7 16.4-9.7 7 1.9 11.7 9.3 9.7 16.4-.8 3.9-9.7 37-27.3 57.2 16 39.3 30 121.5-.4 151.4-5.8 5.8-15.6 6.2-21.8 0-5.8-5.8-6.2-15.6 0-21.8 6.6-6.6 9.7-20.6 8.6-39.7-8.6 18.7-21.8 34.6-37 44.4-7 4.7-16.7 2.7-21.4-4.7-7.8-12.1 3.5-20.6 10.9-26.5 11.7-9.3 19.5-23.4 23.7-37.4 4.7-15.6 3.9-25.3-1.6-38.2-.4.4 1.9-1.6-12.8 11.3-5.8 5.1-15.2 4.3-19.9-2.3L65.4 94.4c-3.9-5.5-3.1-13.2 1.6-17.9L53 50.8C42.4 55.1 31.5 52 24.5 40.3z" class="st0"/><path d="M91.9 53.5c0-13.6 11.3-24.9 24.9-24.9s24.5 10.9 24.5 24.9c0 13.6-10.9 24.5-24.5 24.5S91.9 67.2 91.9 53.5zm107.4-35c0-8.6 7-15.6 15.6-15.6s15.6 7 15.6 15.6-7 15.6-15.6 15.6-15.6-7-15.6-15.6z" class="st0"/></svg>