<svg xmlns="http://www.w3.org/2000/svg" xml:space="preserve" id="Calque_1" x="0" y="0" style="enable-background:new 0 0 30 30" version="1.1" viewBox="0 0 30 30"><style>.st0{fill:#ebeff2}</style><path d="m24.5 20.7.1.3.4 1c.1-.1.1-.2.2-.4.6-1.5 1-3.2 1-5 0-3.6-1.4-6.9-3.8-9.2-2.4-2.3-5.6-3.8-9.2-3.8-3.6 0-6.9 1.5-9.2 3.8-2.5 2.4-4 5.6-4 9.2v.1c0 1.8.3 3.4 1 5s1.6 3 2.8 4.2c.4.3 1 .3 1.3 0l1.3-1.3c.3-.3.3-.9 0-1.3-.4-.4-1-.4-1.3 0l-.6.6C3.8 23 3.1 22 2.7 21c-.4-1-.7-2.2-.8-3.4h.9c.5 0 .9-.4.9-.9s-.4-.9-.9-.9h-.9c.2-2.4 1.2-4.6 2.6-6.3l.6.6c.3.3.9.3 1.3 0 .3-.4.3-1 0-1.3l-.6-.7c1.7-1.5 3.9-2.4 6.3-2.6v.9c0 .5.4.9.9.9s.9-.4.9-.9v-.9c2.4.2 4.5 1.2 6.3 2.6l-.6.6c-.4.3-.4.9 0 1.3.3.3.9.3 1.3 0l.6-.6c1.5 1.7 2.4 3.9 2.6 6.3h-.9c-.5 0-.9.4-.9.9s.4.9.9.9h.9c-.1 1.1-.3 2.1-.7 3.1l1.1.1z" class="st0"/><path d="M18 13c.3-.4.3-1 0-1.3-.4-.4-1-.4-1.3 0l-2.4 2.4c-.4-.2-.8-.3-1.2-.3-.8 0-1.5.3-2 .8s-.8 1.2-.8 2 .3 1.5.8 2 1.2.8 2 .8 1.5-.3 2-.8.8-1.2.8-2c0-.4-.1-.8-.3-1.2L18 13zm-4.3 4.3c-.2.2-.4.3-.7.3-.2 0-.5-.1-.7-.3-.1-.1-.1-.2-.2-.3 0-.1-.1-.2-.1-.4s.1-.5.2-.7c.2-.1.4-.2.7-.2.3 0 .5.1.7.2.1.1.2.2.2.3 0 .1.1.2.1.4.1.3 0 .5-.2.7zM20.9 21.1h-1.4l-.9 2.6-.9-2.6h-1.5v5h1.2v-2.8c.2.6.6 1.8.8 2.3h.7c.2-.6.6-1.8.9-2.3-.1.6-.1 2.2-.1 2.8h1.2v-5zM29.9 25.9l-1.3-2.4 1.3-2.3.1-.1h-1.4c0 .1-.7 1.5-.7 1.5s-.6-1.4-.7-1.5h-1.4c0 .1 0 .1.1.1l1.3 2.3-1.1 2-.1.2-.1.2-1.1-3.4-.4-1.4H23c-.4 1.2-1.2 3.8-1.6 5h1.3c0-.2.2-.7.2-.9h1.4c0 .1.2.8.2.9h2.6c0-.1.7-1.6.7-1.7 0 0 .7 1.6.7 1.7H30c0-.1 0-.2-.1-.2zm-6-1.8c-.1 0-.1 0 0 0h-.8l.4-1.6h.1l.4 1.6h-.1z" class="st0"/></svg>