<svg xmlns="http://www.w3.org/2000/svg" xml:space="preserve" id="Calque_1" x="0" y="0" style="enable-background:new 0 0 30 30" version="1.1" viewBox="0 0 30 30"><style>.st0{fill:#ebeff2}</style><path d="M23.7 20.7c.6 0 1.1.2 1.6.5.5-1.4.8-2.9.8-4.4 0-3.6-1.4-6.9-3.8-9.2-2.4-2.3-5.6-3.8-9.2-3.8S6.2 5.2 3.8 7.5C1.5 9.9 0 13.2 0 16.7v.1c0 1.7.3 3.4 1 5s1.6 3 2.8 4.2c.4.3 1 .3 1.3 0l1.3-1.3c.3-.3.3-.9 0-1.3-.4-.4-1-.4-1.3 0l-.6.6c-.7-.9-1.4-1.9-1.8-2.9-.4-1-.7-2.2-.8-3.4h.9c.5 0 .9-.4.9-.9s-.4-.9-.9-.9h-.9c.2-2.4 1.2-4.6 2.6-6.3l.6.6c.3.3.9.3 1.3 0 .3-.4.3-1 0-1.3l-.6-.7c1.7-1.5 3.9-2.4 6.3-2.6v.9c0 .5.4.9.9.9.6.1 1-.4 1-.9v-.9c2.4.2 4.5 1.2 6.3 2.6l-.6.6c-.4.3-.4.9 0 1.3.3.3.9.3 1.3 0l.6-.6c1.5 1.7 2.4 3.9 2.6 6.3h-.9c-.5 0-.9.4-.9.9s.4.9.9.9h.9c-.1 1-.3 2-.7 3 .1.1.2.1.2.1z" class="st0"/><path d="M18 13.2c.3-.4.3-1 0-1.3-.4-.4-1-.4-1.3 0l-2.4 2.4c-.4-.2-.8-.3-1.3-.3-.8 0-1.5.3-2 .8s-.8 1.2-.8 2 .3 1.5.8 2 1.2.8 2 .8 1.5-.3 2-.8.8-1.2.8-2c0-.4-.1-.8-.3-1.2l2.5-2.4zm-4.3 4.2c-.2.2-.4.3-.7.3-.2 0-.5-.1-.7-.3l-.1-.1c-.1-.1-.1-.3-.1-.5s.1-.5.2-.7c.2-.1.4-.2.7-.2.3 0 .5.1.7.2.1.1.2.2.2.4 0 .1.1.2.1.3 0 .2-.1.5-.3.6zM18.5 23.7l-1-2.5h-1.4v4.9h1.2v-1.9l-.1-.9h.1l.4 1.1.4 1.2h.7l.5-1.2.4-1.1v2.8h1.2v-4.9h-1.4zM23.7 21h-.3c-.6.1-1 .3-1.3.7-.4.4-.5.9-.5 1.9v.4c0 .8.2 1.2.5 1.6l.3.3c.3.3.8.4 1.3.4.8 0 1.3-.3 1.6-.7.4-.4.5-.9.5-1.9 0-1-.1-1.4-.5-1.9l-.2-.2c-.3-.4-.8-.6-1.4-.6zm.7 1.5c.1.1.1.2.2.3.1.2.1.4.1.8 0 .6-.1 1-.3 1.2-.2.2-.4.3-.7.3-.2 0-.4-.1-.5-.2l-.1-.1c-.2-.2-.3-.6-.3-1.2s.1-.9.3-1.1c.2-.2.4-.3.7-.3s.5.1.6.3zM28.6 21.2 28 23v.2l-.1-.2-.6-1.8h-1.4l1.4 3.3v1.6h1.3v-1.6l1.4-3.3z" class="st0"/></svg>