<?xml version="1.0" encoding="utf-8"?>
<!-- Generator: Adobe Illustrator 26.5.3, SVG Export Plug-In . SVG Version: 6.00 Build 0)  -->
<svg version="1.1" id="Calque_1" xmlns="http://www.w3.org/2000/svg" xmlns:xlink="http://www.w3.org/1999/xlink" x="0px" y="0px"
	 viewBox="0 0 40 40" style="enable-background:new 0 0 40 40;" xml:space="preserve">
<style type="text/css">
	.st0{fill:#EBEFF2;}
</style>
<path class="st0" d="M36,0H4C1.8,0,0,1.8,0,4v32c0,2.2,1.8,4,4,4h32c2.2,0,4-1.8,4-4V4C40,1.8,38.2,0,36,0z M31.1,25.8
	c1.2,1.2,1.2,3.2,0,4.4l-0.9,0.9c-1.2,1.2-3.2,1.2-4.4,0L20,25.3l-5.8,5.8c-1.2,1.2-3.2,1.2-4.4,0l-0.9-0.9c-1.2-1.2-1.2-3.2,0-4.4
	l5.8-5.8l-5.8-5.8C7.7,13,7.7,11,8.9,9.8l0.9-0.9c1.2-1.2,3.2-1.2,4.4,0l5.8,5.8l5.8-5.8c1.2-1.2,3.2-1.2,4.4,0l0.9,0.9
	c1.2,1.2,1.2,3.2,0,4.4L25.3,20L31.1,25.8z"/>
</svg>
