<svg xmlns="http://www.w3.org/2000/svg" xml:space="preserve" style="enable-background:new 0 0 40 40" viewBox="0 0 40 40"><path d="M36 0H4C1.8 0 0 1.8 0 4v32c0 2.2 1.8 4 4 4h32c2.2 0 4-1.8 4-4V4c0-2.2-1.8-4-4-4zm-4.9 25.8c1.2 1.2 1.2 3.2 0 4.4l-.9.9c-1.2 1.2-3.2 1.2-4.4 0L20 25.3l-5.8 5.8c-1.2 1.2-3.2 1.2-4.4 0l-.9-.9c-1.2-1.2-1.2-3.2 0-4.4l5.8-5.8-5.8-5.8C7.7 13 7.7 11 8.9 9.8l.9-.9c1.2-1.2 3.2-1.2 4.4 0l5.8 5.8 5.8-5.8c1.2-1.2 3.2-1.2 4.4 0l.9.9c1.2 1.2 1.2 3.2 0 4.4L25.3 20l5.8 5.8z" style="fill:#ebeff2"/></svg>