<svg version="1.1" id="droit_int" xmlns="http://www.w3.org/2000/svg" xmlns:xlink="http://www.w3.org/1999/xlink" x="0px" y="0px" viewBox="0 0 375 900" style="enable-background:new 0 0 375 900;" xml:space="preserve">
<polygon style="fill:#DDFF00;" points="117.5,270.6 112.6,270.6 74.3,601.8 82.9,601.8 121.2,270.6"/>
<g>
	<polygon style="fill:#EBEFF2;fill-opacity:0.75;" points="312.8,863.4 304.3,863.4 304.3,888.9 0,888.9 0,897.5 375,897.5 375,888.9 312.8,888.9"/>
	<polygon style="fill:#EBEFF2;fill-opacity:0.75;" points="0,27.6 0,36.2 304.3,36.2 304,234 312.6,234 312.8,36.2 375,36.2 375,27.6"/>
	<polygon style="fill:#EBEFF2;fill-opacity:0.75;" points="312.5,270.6 304,270.6 303.6,601.8 82.9,601.8 74.3,601.8 0,601.8 0,610.4 375,610.4 375,601.8 312.1,601.8"/>
</g>
<g>
	<polygon style="opacity:0.75;fill:#002333;enable-background:new;" points="312.6,241.6 304,241.6 0,241.6 0,270.6 112.6,270.6 117.5,270.6 304,270.6 312.5,270.6 375,270.6 375,241.6"/>
	<polygon style="fill:#EBEFF2;fill-opacity:0.5;" points="312.6,234 304,234 0,234 0,241.6 304,241.6 312.6,241.6 375,241.6 375,234"/>
</g>
</svg>
