<svg version="1.1" id="droit_x5F_ext" xmlns="http://www.w3.org/2000/svg" xmlns:xlink="http://www.w3.org/1999/xlink" x="0px" y="0px" viewBox="0 0 375 900" style="enable-background:new 0 0 375 900;" xml:space="preserve">
<polygon style="fill:#DDFF00;" points="338.5,270.6 333.6,270.6 295.3,601.8 303.9,601.8 342.2,270.6 "/>
<g>
	<polygon style="opacity:0.75;fill:#002333;enable-background:new;" points="157.4,241.6 148.6,241.6 63.3,241.6 54.4,241.6 0,241.6 0,270.6 46,270.6 54.9,270.6 141.9,270.6 150.7,270.6 333.6,270.6 338.5,270.6 375,270.6 375,241.6"/>
	<polygon style="fill:#EBEFF2;fill-opacity:0.5;" points="159.1,234 150.3,234 65.5,234 56.6,234 0,234 0,241.6 54.4,241.6 63.3,241.6 148.6,241.6 157.4,241.6 375,241.6 375,234"/>
</g>
<g>
	<polygon style="fill:#EBEFF2;fill-opacity:0.75;" points="133,0 124.2,0 56.6,234 65.5,234"/>
	<polygon style="fill:#EBEFF2;fill-opacity:0.75;" points="206.8,27.6 213.2,0 204.4,0 150.3,234 159.1,234 204.8,36.2 375,36.2 375,27.6"/>
	<polygon style="fill:#EBEFF2;fill-opacity:0.75;" points="46,270.6 0,430 0,460.8 54.9,270.6"/>
	<polygon style="fill:#EBEFF2;fill-opacity:0.75;" points="295.3,601.8 74.2,601.8 150.7,270.6 141.9,270.6 0,884.9 0,897.5 5.9,897.5 375,897.5 375,888.9 7.8,888.9 72.2,610.4 375,610.4 375,601.8 303.9,601.8 	"/>
</g>
</svg>
