<?xml version="1.0" encoding="utf-8"?>
<svg version="1.1" id="Calque_1" xmlns="http://www.w3.org/2000/svg" xmlns:xlink="http://www.w3.org/1999/xlink" x="0px" y="0px"
	 viewBox="0 0 520 450.4" style="enable-background:new 0 0 520 450.4;" xml:space="preserve">
<style type="text/css">
	.st0{fill:#003352;}
	.st1{fill:#EBEFF2;}
	.st2{fill:#DDFF00;}
	.st3{fill:#002333;}
</style>
<g class="zone--inactive">
	<path class="st0" d="M337,77.8h70.5l15.8,102.7h-79L337,77.8L337,77.8z"/>
	<circle class="st1" cx="380.8" cy="129.8" r="16.8"/>
	<path d="M375.1,134.2v-1.8l6.3-9.9h1.4v2.6h-0.9l-4.5,7.1v0.1h8.6v1.9H375.1L375.1,134.2z M382,137v-4.2v-10.3h2.1V137H382L382,137
		z"/>
</g>
<g class="zone--active">
	<path class="st2" d="M337,77.8h70.5l15.8,102.7h-79L337,77.8L337,77.8z"/>
	<circle class="st3" cx="380.8" cy="129.8" r="16.8"/>
	<path class="st2" d="M375.1,134.2v-1.8l6.3-9.9h1.4v2.6h-0.9l-4.5,7.1v0.1h8.6v1.9L375.1,134.2L375.1,134.2z M382,137v-4.2v-10.3
		h2.1V137H382L382,137z"/>
</g>
<g class="zone--inactive">
	<path class="st0" d="M261.7,77.8h71.9l7.3,102.7h-79.2V77.8L261.7,77.8z"/>
	<circle class="st1" cx="300.8" cy="129.8" r="16.8"/>
	<path class="st3" d="M300.5,137.2c-1,0-1.9-0.2-2.6-0.5c-0.8-0.3-1.4-0.8-1.8-1.4c-0.4-0.6-0.7-1.3-0.7-2.1h2.2
		c0,0.4,0.2,0.8,0.4,1.1c0.3,0.3,0.6,0.6,1,0.7c0.4,0.2,0.9,0.3,1.4,0.3c0.6,0,1.1-0.1,1.5-0.3c0.5-0.2,0.8-0.5,1-0.8
		c0.2-0.4,0.4-0.8,0.4-1.2s-0.1-0.9-0.4-1.3c-0.2-0.4-0.6-0.7-1.1-0.9s-1-0.3-1.7-0.3H299v-1.8h1.2c0.5,0,1-0.1,1.4-0.3
		s0.7-0.5,1-0.8c0.2-0.3,0.4-0.8,0.4-1.2s-0.1-0.8-0.3-1.2c-0.2-0.3-0.5-0.6-0.9-0.8c-0.4-0.2-0.8-0.3-1.3-0.3s-0.9,0.1-1.3,0.3
		c-0.4,0.2-0.7,0.4-1,0.7c-0.3,0.3-0.4,0.7-0.4,1.1h-2.1c0-0.8,0.3-1.5,0.7-2.1c0.4-0.6,1-1.1,1.8-1.4s1.5-0.5,2.4-0.5
		s1.7,0.2,2.4,0.6c0.7,0.4,1.2,0.8,1.6,1.4s0.6,1.3,0.5,2c0,0.8-0.2,1.5-0.7,2.1c-0.5,0.6-1.1,0.9-1.8,1.1v0.1
		c1,0.1,1.7,0.5,2.2,1.1s0.8,1.4,0.8,2.3c0,0.8-0.2,1.5-0.7,2.1s-1,1.1-1.8,1.5C302.3,137,301.5,137.2,300.5,137.2L300.5,137.2z"/>
</g>
<g class="zone--active">
	<path class="st2" d="M261.7,77.8h71.9l7.3,102.7h-79.2V77.8L261.7,77.8z"/>
	<circle class="st3" cx="300.8" cy="129.8" r="16.8"/>
	<path class="st2" d="M300.5,137.2c-1,0-1.9-0.2-2.6-0.5c-0.8-0.3-1.4-0.8-1.8-1.4c-0.4-0.6-0.7-1.3-0.7-2.1h2.2
		c0,0.4,0.2,0.8,0.4,1.1c0.3,0.3,0.6,0.6,1,0.7c0.4,0.2,0.9,0.3,1.4,0.3c0.6,0,1.1-0.1,1.5-0.3c0.5-0.2,0.8-0.5,1-0.8
		c0.2-0.4,0.4-0.8,0.4-1.2s-0.1-0.9-0.4-1.3c-0.2-0.4-0.6-0.7-1.1-0.9s-1-0.3-1.7-0.3H299v-1.8h1.2c0.5,0,1-0.1,1.4-0.3
		s0.7-0.5,1-0.8c0.2-0.3,0.4-0.8,0.4-1.2s-0.1-0.8-0.3-1.2c-0.2-0.3-0.5-0.6-0.9-0.8c-0.4-0.2-0.8-0.3-1.3-0.3s-0.9,0.1-1.3,0.3
		c-0.4,0.2-0.7,0.4-1,0.7c-0.3,0.3-0.4,0.7-0.4,1.1h-2.1c0-0.8,0.3-1.5,0.7-2.1c0.4-0.6,1-1.1,1.8-1.4s1.5-0.5,2.4-0.5
		s1.7,0.2,2.4,0.6c0.7,0.4,1.2,0.8,1.6,1.4s0.6,1.3,0.5,2c0,0.8-0.2,1.5-0.7,2.1c-0.5,0.6-1.1,0.9-1.8,1.1v0.1
		c1,0.1,1.7,0.5,2.2,1.1s0.8,1.4,0.8,2.3c0,0.8-0.2,1.5-0.7,2.1s-1,1.1-1.8,1.5C302.3,137,301.5,137.2,300.5,137.2L300.5,137.2z"/>
</g>
<g class="zone--inactive">
	<path class="st0" d="M186.5,77.8l-7.9,102.7h79.6V77.8"/>
	<ellipse class="st1" cx="218.9" cy="129.8" rx="16.9" ry="16.8"/>
	<path class="st3" d="M213.4,137v-1.6l4.9-5.1c0.5-0.6,1-1,1.3-1.5c0.4-0.4,0.6-0.8,0.8-1.2c0.2-0.4,0.3-0.8,0.3-1.2
		c0-0.5-0.1-0.9-0.3-1.2s-0.5-0.6-0.9-0.8s-0.8-0.3-1.3-0.3s-1,0.1-1.4,0.3s-0.7,0.5-0.9,0.9s-0.3,0.8-0.3,1.4h-2.1
		c0-0.9,0.2-1.7,0.6-2.3c0.4-0.7,1-1.2,1.7-1.5c0.7-0.4,1.5-0.6,2.4-0.6s1.7,0.2,2.4,0.6s1.2,0.8,1.6,1.5c0.4,0.6,0.6,1.3,0.6,2.1
		c0,0.5-0.1,1.1-0.3,1.6s-0.6,1.1-1,1.7c-0.5,0.6-1.2,1.4-2.1,2.3l-2.9,3v0.1h6.6v1.9L213.4,137L213.4,137z"/>
</g>
<g class="zone--active">
	<path class="st2" d="M186.5,77.8l-7.9,102.7h79.6V77.8"/>
	<ellipse class="st3" cx="218.9" cy="129.8" rx="16.9" ry="16.8"/>
	<path class="st2" d="M213.4,137v-1.6l4.9-5.1c0.5-0.6,1-1,1.3-1.5c0.4-0.4,0.6-0.8,0.8-1.2c0.2-0.4,0.3-0.8,0.3-1.2
		c0-0.5-0.1-0.9-0.3-1.2s-0.5-0.6-0.9-0.8s-0.8-0.3-1.3-0.3s-1,0.1-1.4,0.3s-0.7,0.5-0.9,0.9s-0.3,0.8-0.3,1.4h-2.1
		c0-0.9,0.2-1.7,0.6-2.3c0.4-0.7,1-1.2,1.7-1.5c0.7-0.4,1.5-0.6,2.4-0.6s1.7,0.2,2.4,0.6s1.2,0.8,1.6,1.5c0.4,0.6,0.6,1.3,0.6,2.1
		c0,0.5-0.1,1.1-0.3,1.6s-0.6,1.1-1,1.7c-0.5,0.6-1.2,1.4-2.1,2.3l-2.9,3v0.1h6.6v1.9L213.4,137L213.4,137z"/>
</g>
<g class="zone--inactive">
	<path class="st0" d="M112.5,77.9L96.7,180.5l78.6,0.1l7.8-102.7C183.1,77.9,112.5,77.9,112.5,77.9z"/>
	<circle class="st1" cx="140.8" cy="129.8" r="16.8"/>
	<path class="st3" d="M142.9,122.5V137h-2.2v-12.3h-0.1l-3.5,2.3v-2.1l3.6-2.4H142.9L142.9,122.5z"/>
</g>
<g class="zone--inactive">
	<path class="st2" d="M112.5,77.8L96.7,180.4l78.6,0.1l7.8-102.7C183.1,77.8,112.5,77.8,112.5,77.8z"/>
	<circle class="st3" cx="140.8" cy="129.7" r="16.8"/>
	<path class="st2" d="M142.9,122.4v14.5h-2.2v-12.3h-0.1l-3.5,2.3v-2.1l3.6-2.4H142.9L142.9,122.4z"/>
</g>
<path id="marquage_gauche" class="st2" d="M186.5,77.8l-7.9,102.7h-3.4
	L183,77.8H186.5z"/>
<path id="terrain" class="st2" d="M337,77.8h-3.4l7.3,102.7h3.4C344.3,180.5,337,77.7,337,77.8z"/>
<path id="marquage_droite" class="st1" d="M433.6,1.4L433.4,0H86.7l-0.3,1.4C86.3,2.2,1.2,443.5,0.4,448L0,450h520L433.6,1.4z
	 M258.3,3.4v4.2h3.4V3.4h134.4L407,74.3H113l10.9-70.9L258.3,3.4L258.3,3.4z M407.5,77.7l38.7,251.4H261.7V77.7H407.5z M258.3,77.7
	v251.4H73.8l38.7-251.4L258.3,77.7L258.3,77.7z M4.2,446.6L88.8,7.1c0.3-1.6,0.5-2.8,0.7-3.6h31L52.2,446.6H4.2z M261.7,446.6v-10
	h-3.4v10H55.7l17.6-114.1h373.5l17.5,114.1H261.7L261.7,446.6z M399.5,3.4h31l85.4,443.2h-48L399.5,3.4z"/>
<g id="filet">
	<path class="st3" d="M485.5,180.6v-16.5H33.7v16.5"/>
	<path class="st1" d="M487,180.6h-2.2v-14.8H35.2v14.8H33v-17h454V180.6L487,180.6z"/>
</g>
</svg>
