<?xml version="1.0" standalone="no"?>
<!DOCTYPE svg PUBLIC "-//W3C//DTD SVG 20010904//EN"
 "http://www.w3.org/TR/2001/REC-SVG-20010904/DTD/svg10.dtd">
<svg version="1.0" xmlns="http://www.w3.org/2000/svg"
 width="700.000000pt" height="700.000000pt" viewBox="0 0 700.000000 700.000000"
 preserveAspectRatio="xMidYMid meet">
<metadata>
Created by potrace 1.14, written by Peter Selinger 2001-2017
</metadata>
<g transform="translate(0.000000,700.000000) scale(0.100000,-0.100000)"
fill="#000000" stroke="none">
<path d="M3229 6986 c-2 -2 -38 -7 -79 -10 -127 -12 -161 -17 -300 -42 -212
-39 -431 -101 -630 -178 -137 -54 -437 -205 -563 -283 -338 -213 -672 -513
-910 -818 -26 -33 -51 -65 -57 -72 -28 -34 -164 -240 -207 -313 -84 -142 -124
-222 -219 -435 -63 -141 -167 -472 -190 -605 -3 -14 -7 -32 -9 -40 -3 -8 -7
-32 -11 -54 -3 -21 -8 -48 -10 -60 -2 -11 -7 -43 -10 -71 -3 -27 -7 -52 -9
-55 -19 -31 -28 -693 -12 -830 7 -60 40 -262 52 -320 77 -382 223 -754 426
-1092 223 -370 535 -715 891 -985 254 -192 537 -351 842 -473 108 -43 321
-113 378 -125 9 -2 43 -10 75 -19 110 -29 190 -44 363 -70 266 -40 734 -40
950 -1 14 3 43 7 65 10 140 16 376 74 573 141 397 134 747 329 1092 609 96 78
306 285 418 411 96 109 252 318 332 446 124 199 263 493 343 728 26 75 95 330
103 379 3 14 11 60 19 101 14 74 18 99 30 190 3 25 8 63 11 85 8 59 12 584 5
629 l-6 38 -880 -879 c-614 -613 -909 -901 -975 -951 -52 -40 -100 -76 -106
-81 -78 -63 -375 -218 -514 -266 -79 -28 -199 -64 -239 -71 -12 -3 -51 -11
-85 -19 -33 -7 -83 -16 -111 -20 -27 -3 -81 -9 -120 -14 -71 -9 -419 -7 -465
3 -14 3 -45 7 -70 10 -25 3 -57 8 -72 11 -16 3 -38 7 -50 9 -299 53 -702 237
-948 435 -213 171 -432 424 -550 636 -40 71 -130 254 -130 263 0 5 -9 30 -20
55 -50 113 -117 379 -137 547 -16 129 -7 588 12 620 2 3 6 25 9 50 8 57 11 71
30 150 85 335 237 635 456 899 41 50 456 472 922 938 840 840 848 848 816 854
-35 6 -513 11 -519 5z"/>
<path d="M3054 6048 c-969 -971 -973 -975 -1141 -1288 -130 -242 -220 -559
-240 -845 -31 -445 61 -856 275 -1221 106 -183 282 -391 432 -513 25 -20 54
-44 65 -54 30 -27 183 -131 245 -166 51 -29 167 -87 251 -124 81 -37 291 -101
368 -113 20 -3 39 -8 43 -10 4 -3 26 -7 50 -10 24 -3 49 -7 56 -9 52 -17 362
-24 508 -12 408 36 825 203 1157 464 40 31 458 441 930 912 l859 856 -6 81
c-17 238 -79 538 -161 774 -153 439 -397 826 -734 1160 -359 357 -749 609
-1202 779 -224 83 -489 152 -679 177 -25 3 -52 7 -60 9 -8 2 -46 7 -85 10
l-70 6 -861 -863z"/>
</g>
</svg>
